<svg width="32" height="32" viewBox="0 0 32 32" fill="none" xmlns="http://www.w3.org/2000/svg">
<style>
	@media (prefers-color-scheme: dark) {
		.bg { fill: white; }
		.initials { fill: #005F5A; }
	}
</style>
<g clip-path="url(#clip0_3_3)">
<circle cx="16" cy="16" r="16" class="bg" fill="#005F5A"/>
<path class="initials" d="M10.4244 11.434H9.77643L6.06843 22H3.56643L8.08443 9.4H12.0984L16.6164 22H14.1144L10.4244 11.434ZM6.30243 17.068H13.6464V19.102H6.30243V17.068ZM25.1891 13.288C25.1891 12.724 25.0151 12.274 24.6671 11.938C24.3311 11.602 23.8031 11.434 23.0831 11.434H20.4011V15.16H23.0831C23.5631 15.16 23.9591 15.088 24.2711 14.944C24.5831 14.788 24.8111 14.572 24.9551 14.296C25.1111 14.008 25.1891 13.672 25.1891 13.288ZM23.1551 9.4C24.1751 9.4 25.0151 9.58 25.6751 9.94C26.3471 10.288 26.8451 10.762 27.1691 11.362C27.5051 11.95 27.6731 12.592 27.6731 13.288C27.6731 13.756 27.5891 14.224 27.4211 14.692C27.2531 15.148 26.9891 15.568 26.6291 15.952C26.2691 16.324 25.8011 16.624 25.2251 16.852C24.6611 17.08 23.9711 17.194 23.1551 17.194H20.4011V22H17.9711V9.4H23.1551ZM24.5231 16.384L27.9251 22H25.2071L21.9491 16.384H24.5231Z" fill="white"/>
</g>
<defs>
<clipPath id="clip0_3_3">
<rect width="32" height="32" fill="white"/>
</clipPath>
</defs>
</svg>
