<svg width="1008" height="688" viewBox="0 0 1008 688" fill="none" xmlns="http://www.w3.org/2000/svg">
<rect width="1008" height="688" fill="white"/>
<line y1="-1" x2="116" y2="-1" transform="matrix(0.707107 0.707107 0.707107 -0.707107 577 421.088)" stroke="black" stroke-width="2"/>
<line y1="-1" x2="116" y2="-1" transform="matrix(0.707107 0.707107 0.707107 -0.707107 199 127)" stroke="black" stroke-width="2"/>
<line x1="431.707" y1="421.795" x2="349.683" y2="503.82" stroke="black" stroke-width="2"/>
<line x1="197.5" y1="373" x2="197.5" y2="397" stroke="#FF0000"/>
<line x1="199" y1="385.053" x2="271" y2="385.053" stroke="black" stroke-width="2"/>
<line y1="-1" x2="22" y2="-1" transform="matrix(0 -1 -1 0 211 396)" stroke="black" stroke-width="2"/>
<line x1="198.098" y1="395.748" x2="211.601" y2="385.421" stroke="black" stroke-width="2"/>
<line y1="-1" x2="17" y2="-1" transform="matrix(0.794309 0.607514 0.607514 -0.794309 198.706 373.607)" stroke="black" stroke-width="2"/>
<line y1="-1" x2="72" y2="-1" transform="matrix(-1 0 0 1 431 386.006)" stroke="black" stroke-width="2"/>
<line y1="-1" x2="17.5" y2="-1" transform="matrix(-0.794309 -0.607514 -0.607514 0.794309 431.294 396.495)" stroke="black" stroke-width="2"/>
<line x1="431.902" y1="374.354" x2="418.001" y2="384.986" stroke="black" stroke-width="2"/>
<circle cx="409" cy="385" r="9" stroke="black" stroke-width="2"/>
<line y1="-0.5" x2="24" y2="-0.5" transform="matrix(0 1 1 0 433 373)" stroke="#FF0000"/>
<line x1="504" y1="347" x2="504" y2="275" stroke="black" stroke-width="2"/>
<circle cx="10" cy="10" r="9" transform="matrix(0 1 1 0 494 316)" stroke="black" stroke-width="2"/>
<line y1="-1" x2="26" y2="-1" transform="matrix(-1 0 0 1 517 339)" stroke="black" stroke-width="2"/>
<line x1="516" y1="127.5" x2="492" y2="127.5" stroke="#FF0000"/>
<line x1="503.947" y1="129" x2="503.947" y2="201" stroke="black" stroke-width="2"/>
<line y1="-1" x2="22" y2="-1" transform="matrix(1 0 0 -1 493 141)" stroke="black" stroke-width="2"/>
<line x1="493.252" y1="128.098" x2="503.579" y2="141.601" stroke="black" stroke-width="2"/>
<line y1="-1" x2="17" y2="-1" transform="matrix(-0.607514 0.794309 0.794309 0.607514 515.393 128.706)" stroke="black" stroke-width="2"/>
<line x1="809.819" y1="127.995" x2="716.481" y2="221.333" stroke="black" stroke-width="2"/>
<line x1="802.894" y1="119.795" x2="800.583" y2="137.141" stroke="black" stroke-width="2"/>
<line y1="-1" x2="17.5" y2="-1" transform="matrix(-0.991239 0.132083 0.132083 0.991239 818.121 135.88)" stroke="black" stroke-width="2"/>
<line y1="-0.5" x2="24" y2="-0.5" transform="matrix(0 1 1 0 811 373)" stroke="#FF0000"/>
<line y1="-1" x2="72" y2="-1" transform="matrix(-1 0 0 1 809 386.006)" stroke="black" stroke-width="2"/>
<line y1="-1" x2="17.5" y2="-1" transform="matrix(-0.794309 -0.607514 -0.607514 0.794309 809.294 396.495)" stroke="black" stroke-width="2"/>
<line x1="809.902" y1="374.354" x2="796.001" y2="384.986" stroke="black" stroke-width="2"/>
<line x1="576.318" y1="347.642" x2="669.656" y2="254.304" stroke="black" stroke-width="2"/>
<path d="M593.25 349.018L574.866 330.633" stroke="black" stroke-width="2"/>
<line y1="-1" x2="26" y2="-1" transform="matrix(-0.707107 -0.707107 -0.707107 0.707107 596.786 345.483)" stroke="black" stroke-width="2"/>
<line x1="577" y1="385.053" x2="649" y2="385.053" stroke="black" stroke-width="2"/>
<path d="M588 398V372" stroke="black" stroke-width="2"/>
<line y1="-1" x2="26" y2="-1" transform="matrix(0 -1 -1 0 593 398)" stroke="black" stroke-width="2"/>
<line x1="126.053" y1="347" x2="126.053" y2="275" stroke="black" stroke-width="2"/>
<path d="M139 336H113" stroke="black" stroke-width="2"/>
<line y1="-1" x2="26" y2="-1" transform="matrix(-1 0 0 1 139 331)" stroke="black" stroke-width="2"/>
<line y1="-1" x2="72" y2="-1" transform="matrix(0 1 1 0 127.053 129)" stroke="black" stroke-width="2"/>
<path d="M139 140H113" stroke="black" stroke-width="2"/>
<line x1="139" y1="146" x2="113" y2="146" stroke="black" stroke-width="2"/>
<line x1="199" y1="91.0534" x2="271" y2="91.0534" stroke="black" stroke-width="2"/>
<path d="M210 104V78" stroke="black" stroke-width="2"/>
<line y1="-1" x2="26" y2="-1" transform="matrix(0 -1 -1 0 215 104)" stroke="black" stroke-width="2"/>
<line y1="-1" x2="72" y2="-1" transform="matrix(-1 0 0 1 431 92.0534)" stroke="black" stroke-width="2"/>
<path d="M420 104V78" stroke="black" stroke-width="2"/>
<line x1="414" y1="104" x2="414" y2="78" stroke="black" stroke-width="2"/>
<rect x="431.5" y="347.5" width="145" height="75" fill="#DBEAFE" stroke="black"/>
<path d="M484.714 384.394C485.302 384.394 485.782 384.304 486.154 384.124C486.538 383.932 486.82 383.668 487 383.332C487.18 382.996 487.27 382.606 487.27 382.162C487.27 381.454 487.066 380.902 486.658 380.506C486.25 380.11 485.602 379.912 484.714 379.912H481.816V384.394H484.714ZM489.07 382.162C489.07 382.618 488.992 383.074 488.836 383.53C488.68 383.974 488.428 384.376 488.08 384.736C487.732 385.096 487.276 385.384 486.712 385.6C486.16 385.804 485.494 385.906 484.714 385.906H481.816V391H480.016V378.4H484.714C485.698 378.4 486.508 378.574 487.144 378.922C487.792 379.258 488.272 379.714 488.584 380.29C488.908 380.854 489.07 381.478 489.07 382.162ZM491.088 378.04H492.78V391H491.088V378.04ZM500.849 391L500.705 389.686C500.429 390.142 500.069 390.496 499.625 390.748C499.193 390.988 498.629 391.108 497.933 391.108C497.285 391.108 496.733 391.006 496.277 390.802C495.821 390.586 495.467 390.292 495.215 389.92C494.975 389.536 494.855 389.092 494.855 388.588C494.855 387.832 495.137 387.208 495.701 386.716C496.265 386.212 497.081 385.9 498.149 385.78L500.705 385.492V384.79C500.705 384.406 500.549 384.082 500.237 383.818C499.925 383.542 499.475 383.404 498.887 383.404C498.335 383.404 497.867 383.536 497.483 383.8C497.099 384.052 496.841 384.43 496.709 384.934L495.197 384.394C495.425 383.602 495.869 382.984 496.529 382.54C497.201 382.096 498.011 381.874 498.959 381.874C500.087 381.874 500.945 382.156 501.533 382.72C502.121 383.284 502.415 384.028 502.415 384.952V391H500.849ZM500.705 386.878L498.239 387.184C497.711 387.256 497.315 387.406 497.051 387.634C496.787 387.85 496.655 388.138 496.655 388.498C496.655 388.834 496.781 389.116 497.033 389.344C497.297 389.56 497.663 389.668 498.131 389.668C498.707 389.668 499.187 389.56 499.571 389.344C499.955 389.128 500.237 388.828 500.417 388.444C500.609 388.048 500.705 387.592 500.705 387.076V386.878ZM510.989 382H512.753L507.533 394.6H505.859L507.443 390.82L503.879 382H505.751L508.361 388.822L510.989 382ZM518.285 391.126C517.421 391.126 516.653 390.928 515.981 390.532C515.321 390.124 514.799 389.566 514.415 388.858C514.043 388.15 513.857 387.34 513.857 386.428C513.857 385.552 514.043 384.772 514.415 384.088C514.787 383.404 515.297 382.864 515.945 382.468C516.605 382.072 517.349 381.874 518.177 381.874C519.017 381.874 519.761 382.06 520.409 382.432C521.057 382.792 521.561 383.302 521.921 383.962C522.281 384.61 522.455 385.36 522.443 386.212C522.443 386.356 522.437 386.506 522.425 386.662C522.413 386.806 522.395 386.968 522.371 387.148H515.711C515.747 387.628 515.879 388.054 516.107 388.426C516.347 388.786 516.647 389.068 517.007 389.272C517.379 389.476 517.799 389.578 518.267 389.578C518.867 389.578 519.389 389.464 519.833 389.236C520.277 388.996 520.589 388.678 520.769 388.282L522.245 388.804C521.885 389.536 521.357 390.106 520.661 390.514C519.977 390.922 519.185 391.126 518.285 391.126ZM520.589 385.69C520.589 385.258 520.481 384.868 520.265 384.52C520.049 384.172 519.755 383.902 519.383 383.71C519.023 383.506 518.615 383.404 518.159 383.404C517.751 383.404 517.373 383.506 517.025 383.71C516.689 383.902 516.401 384.172 516.161 384.52C515.933 384.856 515.789 385.246 515.729 385.69H520.589ZM524.521 382H526.069L526.177 383.206C526.429 382.894 526.717 382.636 527.041 382.432C527.377 382.216 527.737 382.066 528.121 381.982C528.517 381.898 528.925 381.904 529.345 382V383.602C528.949 383.506 528.565 383.494 528.193 383.566C527.821 383.638 527.485 383.794 527.185 384.034C526.897 384.262 526.663 384.568 526.483 384.952C526.303 385.336 526.213 385.798 526.213 386.338V391H524.521V382Z" fill="black"/>
<rect x="53.5" y="53.5" width="145" height="75" fill="#DBEAFE" stroke="black"/>
<path d="M103.529 84.4H113.195V85.912H109.271V97H107.471V85.912H103.529V84.4ZM119.103 97.126C118.239 97.126 117.471 96.928 116.799 96.532C116.139 96.124 115.617 95.566 115.233 94.858C114.861 94.15 114.675 93.34 114.675 92.428C114.675 91.552 114.861 90.772 115.233 90.088C115.605 89.404 116.115 88.864 116.763 88.468C117.423 88.072 118.167 87.874 118.995 87.874C119.835 87.874 120.579 88.06 121.227 88.432C121.875 88.792 122.379 89.302 122.739 89.962C123.099 90.61 123.273 91.36 123.261 92.212C123.261 92.356 123.255 92.506 123.243 92.662C123.231 92.806 123.213 92.968 123.189 93.148H116.529C116.565 93.628 116.697 94.054 116.925 94.426C117.165 94.786 117.465 95.068 117.825 95.272C118.197 95.476 118.617 95.578 119.085 95.578C119.685 95.578 120.207 95.464 120.651 95.236C121.095 94.996 121.407 94.678 121.587 94.282L123.063 94.804C122.703 95.536 122.175 96.106 121.479 96.514C120.795 96.922 120.003 97.126 119.103 97.126ZM121.407 91.69C121.407 91.258 121.299 90.868 121.083 90.52C120.867 90.172 120.573 89.902 120.201 89.71C119.841 89.506 119.433 89.404 118.977 89.404C118.569 89.404 118.191 89.506 117.843 89.71C117.507 89.902 117.219 90.172 116.979 90.52C116.751 90.856 116.607 91.246 116.547 91.69H121.407ZM130.83 97L130.686 95.686C130.41 96.142 130.05 96.496 129.606 96.748C129.174 96.988 128.61 97.108 127.914 97.108C127.266 97.108 126.714 97.006 126.258 96.802C125.802 96.586 125.448 96.292 125.196 95.92C124.956 95.536 124.836 95.092 124.836 94.588C124.836 93.832 125.118 93.208 125.682 92.716C126.246 92.212 127.062 91.9 128.13 91.78L130.686 91.492V90.79C130.686 90.406 130.53 90.082 130.218 89.818C129.906 89.542 129.456 89.404 128.868 89.404C128.316 89.404 127.848 89.536 127.464 89.8C127.08 90.052 126.822 90.43 126.69 90.934L125.178 90.394C125.406 89.602 125.85 88.984 126.51 88.54C127.182 88.096 127.992 87.874 128.94 87.874C130.068 87.874 130.926 88.156 131.514 88.72C132.102 89.284 132.396 90.028 132.396 90.952V97H130.83ZM130.686 92.878L128.22 93.184C127.692 93.256 127.296 93.406 127.032 93.634C126.768 93.85 126.636 94.138 126.636 94.498C126.636 94.834 126.762 95.116 127.014 95.344C127.278 95.56 127.644 95.668 128.112 95.668C128.688 95.668 129.168 95.56 129.552 95.344C129.936 95.128 130.218 94.828 130.398 94.444C130.59 94.048 130.686 93.592 130.686 93.076V92.878ZM134.832 88H136.38L136.488 89.044C136.776 88.684 137.136 88.402 137.568 88.198C138 87.982 138.486 87.874 139.026 87.874C139.638 87.874 140.19 88.012 140.682 88.288C141.186 88.552 141.582 88.948 141.87 89.476C142.17 88.948 142.596 88.552 143.148 88.288C143.7 88.012 144.306 87.874 144.966 87.874C145.65 87.874 146.25 88.024 146.766 88.324C147.294 88.612 147.702 89.044 147.99 89.62C148.278 90.196 148.422 90.916 148.422 91.78V97H146.712V91.996C146.712 91.156 146.532 90.52 146.172 90.088C145.812 89.644 145.296 89.422 144.624 89.422C143.94 89.422 143.4 89.65 143.004 90.106C142.608 90.562 142.41 91.228 142.41 92.104V97H140.7V91.996C140.7 91.156 140.532 90.52 140.196 90.088C139.86 89.644 139.356 89.422 138.684 89.422C138 89.422 137.466 89.65 137.082 90.106C136.71 90.562 136.524 91.228 136.524 92.104V97H134.832V88Z" fill="black"/>
<path d="M270.775 385L315 347.654L359.225 385L315 422.346L270.775 385Z" fill="#FFEDD4" stroke="black"/>
<path d="M300.462 378.4H302.262V383.854H308.598V378.4H310.38V391H308.598V385.366H302.262V391H300.462V378.4ZM318.605 391L318.461 389.686C318.185 390.142 317.825 390.496 317.381 390.748C316.949 390.988 316.385 391.108 315.689 391.108C315.041 391.108 314.489 391.006 314.033 390.802C313.577 390.586 313.223 390.292 312.971 389.92C312.731 389.536 312.611 389.092 312.611 388.588C312.611 387.832 312.893 387.208 313.457 386.716C314.021 386.212 314.837 385.9 315.905 385.78L318.461 385.492V384.79C318.461 384.406 318.305 384.082 317.993 383.818C317.681 383.542 317.231 383.404 316.643 383.404C316.091 383.404 315.623 383.536 315.239 383.8C314.855 384.052 314.597 384.43 314.465 384.934L312.953 384.394C313.181 383.602 313.625 382.984 314.285 382.54C314.957 382.096 315.767 381.874 316.715 381.874C317.843 381.874 318.701 382.156 319.289 382.72C319.877 383.284 320.171 384.028 320.171 384.952V391H318.605ZM318.461 386.878L315.995 387.184C315.467 387.256 315.071 387.406 314.807 387.634C314.543 387.85 314.411 388.138 314.411 388.498C314.411 388.834 314.537 389.116 314.789 389.344C315.053 389.56 315.419 389.668 315.887 389.668C316.463 389.668 316.943 389.56 317.327 389.344C317.711 389.128 317.993 388.828 318.173 388.444C318.365 388.048 318.461 387.592 318.461 387.076V386.878ZM323.616 388.156C323.7 388.516 323.844 388.798 324.048 389.002C324.252 389.206 324.492 389.356 324.768 389.452C325.056 389.536 325.356 389.578 325.668 389.578C326.208 389.578 326.628 389.47 326.928 389.254C327.228 389.038 327.378 388.768 327.378 388.444C327.378 388.168 327.282 387.952 327.09 387.796C326.91 387.628 326.664 387.496 326.352 387.4C326.052 387.304 325.728 387.214 325.38 387.13C325.068 387.046 324.726 386.95 324.354 386.842C323.994 386.734 323.652 386.59 323.328 386.41C323.016 386.218 322.758 385.978 322.554 385.69C322.35 385.39 322.248 385.012 322.248 384.556C322.248 384.016 322.392 383.548 322.68 383.152C322.98 382.744 323.388 382.432 323.904 382.216C324.432 381.988 325.026 381.874 325.686 381.874C326.454 381.874 327.126 382.042 327.702 382.378C328.29 382.702 328.716 383.194 328.98 383.854L327.45 384.358C327.366 384.13 327.228 383.944 327.036 383.8C326.844 383.656 326.622 383.56 326.37 383.512C326.13 383.452 325.89 383.422 325.65 383.422C325.194 383.422 324.816 383.512 324.516 383.692C324.216 383.872 324.066 384.136 324.066 384.484C324.066 384.676 324.114 384.838 324.21 384.97C324.306 385.09 324.438 385.192 324.606 385.276C324.786 385.348 324.996 385.414 325.236 385.474C325.476 385.534 325.734 385.6 326.01 385.672C326.37 385.78 326.736 385.9 327.108 386.032C327.48 386.152 327.822 386.308 328.134 386.5C328.446 386.692 328.698 386.944 328.89 387.256C329.082 387.568 329.184 387.952 329.196 388.408C329.196 388.936 329.046 389.404 328.746 389.812C328.458 390.22 328.044 390.544 327.504 390.784C326.976 391.012 326.346 391.126 325.614 391.126C324.726 391.126 323.97 390.928 323.346 390.532C322.722 390.136 322.302 389.524 322.086 388.696L323.616 388.156Z" fill="black"/>
<path d="M459.775 238L504 200.654L548.225 238L504 275.346L459.775 238Z" fill="#FFEDD4" stroke="black"/>
<path d="M489.462 231.4H491.262V236.854H497.598V231.4H499.38V244H497.598V238.366H491.262V244H489.462V231.4ZM507.605 244L507.461 242.686C507.185 243.142 506.825 243.496 506.381 243.748C505.949 243.988 505.385 244.108 504.689 244.108C504.041 244.108 503.489 244.006 503.033 243.802C502.577 243.586 502.223 243.292 501.971 242.92C501.731 242.536 501.611 242.092 501.611 241.588C501.611 240.832 501.893 240.208 502.457 239.716C503.021 239.212 503.837 238.9 504.905 238.78L507.461 238.492V237.79C507.461 237.406 507.305 237.082 506.993 236.818C506.681 236.542 506.231 236.404 505.643 236.404C505.091 236.404 504.623 236.536 504.239 236.8C503.855 237.052 503.597 237.43 503.465 237.934L501.953 237.394C502.181 236.602 502.625 235.984 503.285 235.54C503.957 235.096 504.767 234.874 505.715 234.874C506.843 234.874 507.701 235.156 508.289 235.72C508.877 236.284 509.171 237.028 509.171 237.952V244H507.605ZM507.461 239.878L504.995 240.184C504.467 240.256 504.071 240.406 503.807 240.634C503.543 240.85 503.411 241.138 503.411 241.498C503.411 241.834 503.537 242.116 503.789 242.344C504.053 242.56 504.419 242.668 504.887 242.668C505.463 242.668 505.943 242.56 506.327 242.344C506.711 242.128 506.993 241.828 507.173 241.444C507.365 241.048 507.461 240.592 507.461 240.076V239.878ZM512.616 241.156C512.7 241.516 512.844 241.798 513.048 242.002C513.252 242.206 513.492 242.356 513.768 242.452C514.056 242.536 514.356 242.578 514.668 242.578C515.208 242.578 515.628 242.47 515.928 242.254C516.228 242.038 516.378 241.768 516.378 241.444C516.378 241.168 516.282 240.952 516.09 240.796C515.91 240.628 515.664 240.496 515.352 240.4C515.052 240.304 514.728 240.214 514.38 240.13C514.068 240.046 513.726 239.95 513.354 239.842C512.994 239.734 512.652 239.59 512.328 239.41C512.016 239.218 511.758 238.978 511.554 238.69C511.35 238.39 511.248 238.012 511.248 237.556C511.248 237.016 511.392 236.548 511.68 236.152C511.98 235.744 512.388 235.432 512.904 235.216C513.432 234.988 514.026 234.874 514.686 234.874C515.454 234.874 516.126 235.042 516.702 235.378C517.29 235.702 517.716 236.194 517.98 236.854L516.45 237.358C516.366 237.13 516.228 236.944 516.036 236.8C515.844 236.656 515.622 236.56 515.37 236.512C515.13 236.452 514.89 236.422 514.65 236.422C514.194 236.422 513.816 236.512 513.516 236.692C513.216 236.872 513.066 237.136 513.066 237.484C513.066 237.676 513.114 237.838 513.21 237.97C513.306 238.09 513.438 238.192 513.606 238.276C513.786 238.348 513.996 238.414 514.236 238.474C514.476 238.534 514.734 238.6 515.01 238.672C515.37 238.78 515.736 238.9 516.108 239.032C516.48 239.152 516.822 239.308 517.134 239.5C517.446 239.692 517.698 239.944 517.89 240.256C518.082 240.568 518.184 240.952 518.196 241.408C518.196 241.936 518.046 242.404 517.746 242.812C517.458 243.22 517.044 243.544 516.504 243.784C515.976 244.012 515.346 244.126 514.614 244.126C513.726 244.126 512.97 243.928 512.346 243.532C511.722 243.136 511.302 242.524 511.086 241.696L512.616 241.156Z" fill="black"/>
<path d="M648.775 385L693 347.654L737.225 385L693 422.346L648.775 385Z" fill="#FFEDD4" stroke="black"/>
<path d="M678.462 378.4H680.262V383.854H686.598V378.4H688.38V391H686.598V385.366H680.262V391H678.462V378.4ZM696.605 391L696.461 389.686C696.185 390.142 695.825 390.496 695.381 390.748C694.949 390.988 694.385 391.108 693.689 391.108C693.041 391.108 692.489 391.006 692.033 390.802C691.577 390.586 691.223 390.292 690.971 389.92C690.731 389.536 690.611 389.092 690.611 388.588C690.611 387.832 690.893 387.208 691.457 386.716C692.021 386.212 692.837 385.9 693.905 385.78L696.461 385.492V384.79C696.461 384.406 696.305 384.082 695.993 383.818C695.681 383.542 695.231 383.404 694.643 383.404C694.091 383.404 693.623 383.536 693.239 383.8C692.855 384.052 692.597 384.43 692.465 384.934L690.953 384.394C691.181 383.602 691.625 382.984 692.285 382.54C692.957 382.096 693.767 381.874 694.715 381.874C695.843 381.874 696.701 382.156 697.289 382.72C697.877 383.284 698.171 384.028 698.171 384.952V391H696.605ZM696.461 386.878L693.995 387.184C693.467 387.256 693.071 387.406 692.807 387.634C692.543 387.85 692.411 388.138 692.411 388.498C692.411 388.834 692.537 389.116 692.789 389.344C693.053 389.56 693.419 389.668 693.887 389.668C694.463 389.668 694.943 389.56 695.327 389.344C695.711 389.128 695.993 388.828 696.173 388.444C696.365 388.048 696.461 387.592 696.461 387.076V386.878ZM701.616 388.156C701.7 388.516 701.844 388.798 702.048 389.002C702.252 389.206 702.492 389.356 702.768 389.452C703.056 389.536 703.356 389.578 703.668 389.578C704.208 389.578 704.628 389.47 704.928 389.254C705.228 389.038 705.378 388.768 705.378 388.444C705.378 388.168 705.282 387.952 705.09 387.796C704.91 387.628 704.664 387.496 704.352 387.4C704.052 387.304 703.728 387.214 703.38 387.13C703.068 387.046 702.726 386.95 702.354 386.842C701.994 386.734 701.652 386.59 701.328 386.41C701.016 386.218 700.758 385.978 700.554 385.69C700.35 385.39 700.248 385.012 700.248 384.556C700.248 384.016 700.392 383.548 700.68 383.152C700.98 382.744 701.388 382.432 701.904 382.216C702.432 381.988 703.026 381.874 703.686 381.874C704.454 381.874 705.126 382.042 705.702 382.378C706.29 382.702 706.716 383.194 706.98 383.854L705.45 384.358C705.366 384.13 705.228 383.944 705.036 383.8C704.844 383.656 704.622 383.56 704.37 383.512C704.13 383.452 703.89 383.422 703.65 383.422C703.194 383.422 702.816 383.512 702.516 383.692C702.216 383.872 702.066 384.136 702.066 384.484C702.066 384.676 702.114 384.838 702.21 384.97C702.306 385.09 702.438 385.192 702.606 385.276C702.786 385.348 702.996 385.414 703.236 385.474C703.476 385.534 703.734 385.6 704.01 385.672C704.37 385.78 704.736 385.9 705.108 386.032C705.48 386.152 705.822 386.308 706.134 386.5C706.446 386.692 706.698 386.944 706.89 387.256C707.082 387.568 707.184 387.952 707.196 388.408C707.196 388.936 707.046 389.404 706.746 389.812C706.458 390.22 706.044 390.544 705.504 390.784C704.976 391.012 704.346 391.126 703.614 391.126C702.726 391.126 701.97 390.928 701.346 390.532C700.722 390.136 700.302 389.524 700.086 388.696L701.616 388.156Z" fill="black"/>
<path d="M648.775 238L693 200.654L737.225 238L693 275.346L648.775 238Z" fill="#FFEDD4" stroke="black"/>
<path d="M678.462 231.4H680.262V236.854H686.598V231.4H688.38V244H686.598V238.366H680.262V244H678.462V231.4ZM696.605 244L696.461 242.686C696.185 243.142 695.825 243.496 695.381 243.748C694.949 243.988 694.385 244.108 693.689 244.108C693.041 244.108 692.489 244.006 692.033 243.802C691.577 243.586 691.223 243.292 690.971 242.92C690.731 242.536 690.611 242.092 690.611 241.588C690.611 240.832 690.893 240.208 691.457 239.716C692.021 239.212 692.837 238.9 693.905 238.78L696.461 238.492V237.79C696.461 237.406 696.305 237.082 695.993 236.818C695.681 236.542 695.231 236.404 694.643 236.404C694.091 236.404 693.623 236.536 693.239 236.8C692.855 237.052 692.597 237.43 692.465 237.934L690.953 237.394C691.181 236.602 691.625 235.984 692.285 235.54C692.957 235.096 693.767 234.874 694.715 234.874C695.843 234.874 696.701 235.156 697.289 235.72C697.877 236.284 698.171 237.028 698.171 237.952V244H696.605ZM696.461 239.878L693.995 240.184C693.467 240.256 693.071 240.406 692.807 240.634C692.543 240.85 692.411 241.138 692.411 241.498C692.411 241.834 692.537 242.116 692.789 242.344C693.053 242.56 693.419 242.668 693.887 242.668C694.463 242.668 694.943 242.56 695.327 242.344C695.711 242.128 695.993 241.828 696.173 241.444C696.365 241.048 696.461 240.592 696.461 240.076V239.878ZM701.616 241.156C701.7 241.516 701.844 241.798 702.048 242.002C702.252 242.206 702.492 242.356 702.768 242.452C703.056 242.536 703.356 242.578 703.668 242.578C704.208 242.578 704.628 242.47 704.928 242.254C705.228 242.038 705.378 241.768 705.378 241.444C705.378 241.168 705.282 240.952 705.09 240.796C704.91 240.628 704.664 240.496 704.352 240.4C704.052 240.304 703.728 240.214 703.38 240.13C703.068 240.046 702.726 239.95 702.354 239.842C701.994 239.734 701.652 239.59 701.328 239.41C701.016 239.218 700.758 238.978 700.554 238.69C700.35 238.39 700.248 238.012 700.248 237.556C700.248 237.016 700.392 236.548 700.68 236.152C700.98 235.744 701.388 235.432 701.904 235.216C702.432 234.988 703.026 234.874 703.686 234.874C704.454 234.874 705.126 235.042 705.702 235.378C706.29 235.702 706.716 236.194 706.98 236.854L705.45 237.358C705.366 237.13 705.228 236.944 705.036 236.8C704.844 236.656 704.622 236.56 704.37 236.512C704.13 236.452 703.89 236.422 703.65 236.422C703.194 236.422 702.816 236.512 702.516 236.692C702.216 236.872 702.066 237.136 702.066 237.484C702.066 237.676 702.114 237.838 702.21 237.97C702.306 238.09 702.438 238.192 702.606 238.276C702.786 238.348 702.996 238.414 703.236 238.474C703.476 238.534 703.734 238.6 704.01 238.672C704.37 238.78 704.736 238.9 705.108 239.032C705.48 239.152 705.822 239.308 706.134 239.5C706.446 239.692 706.698 239.944 706.89 240.256C707.082 240.568 707.184 240.952 707.196 241.408C707.196 241.936 707.046 242.404 706.746 242.812C706.458 243.22 706.044 243.544 705.504 243.784C704.976 244.012 704.346 244.126 703.614 244.126C702.726 244.126 701.97 243.928 701.346 243.532C700.722 243.136 700.302 242.524 700.086 241.696L701.616 241.156Z" fill="black"/>
<rect x="53.5" y="347.5" width="145" height="75" fill="#DBEAFE" stroke="black"/>
<rect x="61.5" y="355.5" width="129" height="59" fill="#DBEAFE" stroke="black"/>
<path d="M72.9587 384.761C73.514 384.761 73.9674 384.676 74.3187 384.506C74.6814 384.325 74.9477 384.075 75.1177 383.758C75.2877 383.441 75.3727 383.072 75.3727 382.653C75.3727 381.984 75.18 381.463 74.7947 381.089C74.4094 380.715 73.7974 380.528 72.9587 380.528H70.2217V384.761H72.9587ZM77.0727 382.653C77.0727 383.084 76.999 383.514 76.8517 383.945C76.7044 384.364 76.4664 384.744 76.1377 385.084C75.809 385.424 75.3784 385.696 74.8457 385.9C74.3244 386.093 73.6954 386.189 72.9587 386.189H70.2217V391H68.5217V379.1H72.9587C73.888 379.1 74.653 379.264 75.2537 379.593C75.8657 379.91 76.319 380.341 76.6137 380.885C76.9197 381.418 77.0727 382.007 77.0727 382.653ZM78.9779 382.5H80.4399L80.5419 383.639C80.7799 383.344 81.0519 383.101 81.3579 382.908C81.6752 382.704 82.0152 382.562 82.3779 382.483C82.7519 382.404 83.1372 382.409 83.5339 382.5V384.013C83.1599 383.922 82.7972 383.911 82.4459 383.979C82.0946 384.047 81.7772 384.194 81.4939 384.421C81.2219 384.636 81.0009 384.925 80.8309 385.288C80.6609 385.651 80.5759 386.087 80.5759 386.597V391H78.9779V382.5ZM88.8427 391.119C88.0267 391.119 87.3014 390.932 86.6667 390.558C86.0434 390.173 85.5504 389.646 85.1877 388.977C84.8364 388.308 84.6607 387.543 84.6607 386.682C84.6607 385.855 84.8364 385.118 85.1877 384.472C85.539 383.826 86.0207 383.316 86.6327 382.942C87.256 382.568 87.9587 382.381 88.7407 382.381C89.534 382.381 90.2367 382.557 90.8487 382.908C91.4607 383.248 91.9367 383.73 92.2767 384.353C92.6167 384.965 92.781 385.673 92.7697 386.478C92.7697 386.614 92.764 386.756 92.7527 386.903C92.7414 387.039 92.7244 387.192 92.7017 387.362H86.4117C86.4457 387.815 86.5704 388.218 86.7857 388.569C87.0124 388.909 87.2957 389.175 87.6357 389.368C87.987 389.561 88.3837 389.657 88.8257 389.657C89.3924 389.657 89.8854 389.549 90.3047 389.334C90.724 389.107 91.0187 388.807 91.1887 388.433L92.5827 388.926C92.2427 389.617 91.744 390.156 91.0867 390.541C90.4407 390.926 89.6927 391.119 88.8427 391.119ZM91.0187 385.985C91.0187 385.577 90.9167 385.209 90.7127 384.88C90.5087 384.551 90.231 384.296 89.8797 384.115C89.5397 383.922 89.1544 383.826 88.7237 383.826C88.3384 383.826 87.9814 383.922 87.6527 384.115C87.3354 384.296 87.0634 384.551 86.8367 384.88C86.6214 385.197 86.4854 385.566 86.4287 385.985H91.0187ZM95.6508 382.5L98.0988 389.283L100.564 382.5H102.264L98.9488 391H97.2148L93.9168 382.5H95.6508ZM104.135 382.5H105.75V391H104.135V382.5ZM104.951 381.004C104.645 381.004 104.39 380.902 104.186 380.698C103.982 380.494 103.88 380.245 103.88 379.95C103.88 379.644 103.982 379.389 104.186 379.185C104.39 378.97 104.645 378.862 104.951 378.862C105.246 378.862 105.495 378.97 105.699 379.185C105.915 379.389 106.022 379.644 106.022 379.95C106.022 380.245 105.915 380.494 105.699 380.698C105.495 380.902 105.246 381.004 104.951 381.004ZM112.152 391.119C111.347 391.119 110.622 390.943 109.976 390.592C109.341 390.229 108.843 389.725 108.48 389.079C108.117 388.422 107.936 387.651 107.936 386.767C107.936 385.872 108.123 385.095 108.497 384.438C108.871 383.781 109.381 383.276 110.027 382.925C110.673 382.562 111.398 382.381 112.203 382.381C113.008 382.381 113.733 382.562 114.379 382.925C115.036 383.276 115.552 383.781 115.926 384.438C116.3 385.084 116.487 385.849 116.487 386.733C116.487 387.628 116.294 388.405 115.909 389.062C115.535 389.719 115.019 390.229 114.362 390.592C113.705 390.943 112.968 391.119 112.152 391.119ZM112.135 389.657C112.588 389.657 113.013 389.555 113.41 389.351C113.807 389.136 114.13 388.813 114.379 388.382C114.64 387.951 114.77 387.402 114.77 386.733C114.77 386.076 114.645 385.537 114.396 385.118C114.158 384.687 113.841 384.37 113.444 384.166C113.047 383.951 112.622 383.843 112.169 383.843C111.727 383.843 111.313 383.951 110.928 384.166C110.554 384.37 110.248 384.687 110.01 385.118C109.772 385.549 109.653 386.098 109.653 386.767C109.653 387.424 109.766 387.968 109.993 388.399C110.231 388.818 110.537 389.136 110.911 389.351C111.285 389.555 111.693 389.657 112.135 389.657ZM125.546 391H124.084L123.965 389.997C123.693 390.36 123.347 390.637 122.928 390.83C122.52 391.023 122.061 391.119 121.551 391.119C120.893 391.119 120.321 390.983 119.834 390.711C119.346 390.428 118.967 390.02 118.695 389.487C118.434 388.943 118.304 388.269 118.304 387.464V382.5H119.919V387.26C119.919 388.042 120.077 388.637 120.395 389.045C120.723 389.453 121.216 389.657 121.874 389.657C122.52 389.657 123.024 389.447 123.387 389.028C123.761 388.609 123.948 387.985 123.948 387.158V382.5H125.546V391ZM128.921 388.314C129 388.654 129.136 388.92 129.329 389.113C129.522 389.306 129.748 389.447 130.009 389.538C130.281 389.617 130.564 389.657 130.859 389.657C131.369 389.657 131.766 389.555 132.049 389.351C132.332 389.147 132.474 388.892 132.474 388.586C132.474 388.325 132.383 388.121 132.202 387.974C132.032 387.815 131.8 387.691 131.505 387.6C131.222 387.509 130.916 387.424 130.587 387.345C130.292 387.266 129.969 387.175 129.618 387.073C129.278 386.971 128.955 386.835 128.649 386.665C128.354 386.484 128.111 386.257 127.918 385.985C127.725 385.702 127.629 385.345 127.629 384.914C127.629 384.404 127.765 383.962 128.037 383.588C128.32 383.203 128.706 382.908 129.193 382.704C129.692 382.489 130.253 382.381 130.876 382.381C131.601 382.381 132.236 382.54 132.78 382.857C133.335 383.163 133.738 383.628 133.987 384.251L132.542 384.727C132.463 384.512 132.332 384.336 132.151 384.2C131.97 384.064 131.76 383.973 131.522 383.928C131.295 383.871 131.069 383.843 130.842 383.843C130.411 383.843 130.054 383.928 129.771 384.098C129.488 384.268 129.346 384.517 129.346 384.846C129.346 385.027 129.391 385.18 129.482 385.305C129.573 385.418 129.697 385.515 129.856 385.594C130.026 385.662 130.224 385.724 130.451 385.781C130.678 385.838 130.921 385.9 131.182 385.968C131.522 386.07 131.868 386.183 132.219 386.308C132.57 386.421 132.893 386.569 133.188 386.75C133.483 386.931 133.721 387.169 133.902 387.464C134.083 387.759 134.18 388.121 134.191 388.552C134.191 389.051 134.049 389.493 133.766 389.878C133.494 390.263 133.103 390.569 132.593 390.796C132.094 391.011 131.499 391.119 130.808 391.119C129.969 391.119 129.255 390.932 128.666 390.558C128.077 390.184 127.68 389.606 127.476 388.824L128.921 388.314ZM140.358 379.1H149.487V380.528H145.781V391H144.081V380.528H140.358V379.1ZM155.066 391.119C154.25 391.119 153.525 390.932 152.89 390.558C152.267 390.173 151.774 389.646 151.411 388.977C151.06 388.308 150.884 387.543 150.884 386.682C150.884 385.855 151.06 385.118 151.411 384.472C151.763 383.826 152.244 383.316 152.856 382.942C153.48 382.568 154.182 382.381 154.964 382.381C155.758 382.381 156.46 382.557 157.072 382.908C157.684 383.248 158.16 383.73 158.5 384.353C158.84 384.965 159.005 385.673 158.993 386.478C158.993 386.614 158.988 386.756 158.976 386.903C158.965 387.039 158.948 387.192 158.925 387.362H152.635C152.669 387.815 152.794 388.218 153.009 388.569C153.236 388.909 153.519 389.175 153.859 389.368C154.211 389.561 154.607 389.657 155.049 389.657C155.616 389.657 156.109 389.549 156.528 389.334C156.948 389.107 157.242 388.807 157.412 388.433L158.806 388.926C158.466 389.617 157.968 390.156 157.31 390.541C156.664 390.926 155.916 391.119 155.066 391.119ZM157.242 385.985C157.242 385.577 157.14 385.209 156.936 384.88C156.732 384.551 156.455 384.296 156.103 384.115C155.763 383.922 155.378 383.826 154.947 383.826C154.562 383.826 154.205 383.922 153.876 384.115C153.559 384.296 153.287 384.551 153.06 384.88C152.845 385.197 152.709 385.566 152.652 385.985H157.242ZM166.141 391L166.005 389.759C165.745 390.19 165.405 390.524 164.985 390.762C164.577 390.989 164.045 391.102 163.387 391.102C162.775 391.102 162.254 391.006 161.823 390.813C161.393 390.609 161.058 390.331 160.82 389.98C160.594 389.617 160.48 389.198 160.48 388.722C160.48 388.008 160.747 387.419 161.279 386.954C161.812 386.478 162.583 386.183 163.591 386.07L166.005 385.798V385.135C166.005 384.772 165.858 384.466 165.563 384.217C165.269 383.956 164.844 383.826 164.288 383.826C163.767 383.826 163.325 383.951 162.962 384.2C162.6 384.438 162.356 384.795 162.231 385.271L160.803 384.761C161.019 384.013 161.438 383.429 162.061 383.01C162.696 382.591 163.461 382.381 164.356 382.381C165.422 382.381 166.232 382.647 166.787 383.18C167.343 383.713 167.62 384.415 167.62 385.288V391H166.141ZM166.005 387.107L163.676 387.396C163.178 387.464 162.804 387.606 162.554 387.821C162.305 388.025 162.18 388.297 162.18 388.637C162.18 388.954 162.299 389.221 162.537 389.436C162.787 389.64 163.132 389.742 163.574 389.742C164.118 389.742 164.572 389.64 164.934 389.436C165.297 389.232 165.563 388.949 165.733 388.586C165.915 388.212 166.005 387.781 166.005 387.294V387.107ZM169.921 382.5H171.383L171.485 383.486C171.757 383.146 172.097 382.88 172.505 382.687C172.913 382.483 173.372 382.381 173.882 382.381C174.46 382.381 174.982 382.511 175.446 382.772C175.922 383.021 176.296 383.395 176.568 383.894C176.852 383.395 177.254 383.021 177.775 382.772C178.297 382.511 178.869 382.381 179.492 382.381C180.138 382.381 180.705 382.523 181.192 382.806C181.691 383.078 182.076 383.486 182.348 384.03C182.62 384.574 182.756 385.254 182.756 386.07V391H181.141V386.274C181.141 385.481 180.971 384.88 180.631 384.472C180.291 384.053 179.804 383.843 179.169 383.843C178.523 383.843 178.013 384.058 177.639 384.489C177.265 384.92 177.078 385.549 177.078 386.376V391H175.463V386.274C175.463 385.481 175.305 384.88 174.987 384.472C174.67 384.053 174.194 383.843 173.559 383.843C172.913 383.843 172.409 384.058 172.046 384.489C171.695 384.92 171.519 385.549 171.519 386.376V391H169.921V382.5Z" fill="black"/>
<rect x="431.5" y="53.5" width="145" height="75" fill="#DBEAFE" stroke="black"/>
<rect x="439.5" y="61.5" width="129" height="59" fill="#DBEAFE" stroke="black"/>
<path d="M464.921 85.1C466.213 85.1 467.323 85.3437 468.253 85.831C469.193 86.3183 469.919 87.0097 470.429 87.905C470.95 88.8003 471.211 89.8657 471.211 91.101C471.211 92.325 470.95 93.379 470.429 94.263C469.919 95.1357 469.193 95.81 468.253 96.286C467.323 96.762 466.213 97 464.921 97H460.841V85.1H464.921ZM464.921 95.572C466.417 95.572 467.55 95.181 468.321 94.399C469.103 93.6057 469.494 92.5063 469.494 91.101C469.494 89.673 469.103 88.5567 468.321 87.752C467.55 86.936 466.417 86.528 464.921 86.528H462.541V95.572H464.921ZM473.106 88.5H474.568L474.67 89.639C474.908 89.3443 475.18 89.1007 475.486 88.908C475.804 88.704 476.144 88.5623 476.506 88.483C476.88 88.4037 477.266 88.4093 477.662 88.5V90.013C477.288 89.9223 476.926 89.911 476.574 89.979C476.223 90.047 475.906 90.1943 475.622 90.421C475.35 90.6363 475.129 90.9253 474.959 91.288C474.789 91.6507 474.704 92.087 474.704 92.597V97H473.106V88.5ZM484.467 97L484.331 95.759C484.07 96.1897 483.73 96.524 483.311 96.762C482.903 96.9887 482.37 97.102 481.713 97.102C481.101 97.102 480.58 97.0057 480.149 96.813C479.718 96.609 479.384 96.3313 479.146 95.98C478.919 95.6173 478.806 95.198 478.806 94.722C478.806 94.008 479.072 93.4187 479.605 92.954C480.138 92.478 480.908 92.1833 481.917 92.07L484.331 91.798V91.135C484.331 90.7723 484.184 90.4663 483.889 90.217C483.594 89.9563 483.169 89.826 482.614 89.826C482.093 89.826 481.651 89.9507 481.288 90.2C480.925 90.438 480.682 90.795 480.557 91.271L479.129 90.761C479.344 90.013 479.764 89.4293 480.387 89.01C481.022 88.5907 481.787 88.381 482.682 88.381C483.747 88.381 484.558 88.6473 485.113 89.18C485.668 89.7127 485.946 90.4153 485.946 91.288V97H484.467ZM484.331 93.107L482.002 93.396C481.503 93.464 481.129 93.6057 480.88 93.821C480.631 94.025 480.506 94.297 480.506 94.637C480.506 94.9543 480.625 95.2207 480.863 95.436C481.112 95.64 481.458 95.742 481.9 95.742C482.444 95.742 482.897 95.64 483.26 95.436C483.623 95.232 483.889 94.9487 484.059 94.586C484.24 94.212 484.331 93.7813 484.331 93.294V93.107ZM488.655 87.548C488.655 86.902 488.763 86.358 488.978 85.916C489.205 85.474 489.55 85.1567 490.015 84.964C490.48 84.76 491.092 84.692 491.851 84.76V86.171C491.262 86.1143 490.848 86.205 490.61 86.443C490.383 86.681 490.27 87.0493 490.27 87.548V88.5H491.953V89.928H490.27V97H488.655V89.928H487.567V88.5H488.655V87.548ZM494.286 88.5V86.12H495.901V88.5H498.026V89.928H495.901V94.11C495.901 94.6313 496.003 94.9997 496.207 95.215C496.422 95.4303 496.689 95.555 497.006 95.589C497.335 95.6117 497.675 95.6003 498.026 95.555V96.932C497.561 97.034 497.102 97.0623 496.649 97.017C496.207 96.983 495.805 96.8583 495.442 96.643C495.091 96.4277 494.807 96.116 494.592 95.708C494.388 95.2887 494.286 94.756 494.286 94.11V89.928H493.062V88.5H494.286ZM504.039 85.1H513.168V86.528H509.462V97H507.762V86.528H504.039V85.1ZM518.747 97.119C517.931 97.119 517.206 96.932 516.571 96.558C515.948 96.1727 515.455 95.6457 515.092 94.977C514.741 94.3083 514.565 93.5433 514.565 92.682C514.565 91.8547 514.741 91.118 515.092 90.472C515.444 89.826 515.925 89.316 516.537 88.942C517.161 88.568 517.863 88.381 518.645 88.381C519.439 88.381 520.141 88.5567 520.753 88.908C521.365 89.248 521.841 89.7297 522.181 90.353C522.521 90.965 522.686 91.6733 522.674 92.478C522.674 92.614 522.669 92.7557 522.657 92.903C522.646 93.039 522.629 93.192 522.606 93.362H516.316C516.35 93.8153 516.475 94.2177 516.69 94.569C516.917 94.909 517.2 95.1753 517.54 95.368C517.892 95.5607 518.288 95.657 518.73 95.657C519.297 95.657 519.79 95.5493 520.209 95.334C520.629 95.1073 520.923 94.807 521.093 94.433L522.487 94.926C522.147 95.6173 521.649 96.1557 520.991 96.541C520.345 96.9263 519.597 97.119 518.747 97.119ZM520.923 91.985C520.923 91.577 520.821 91.2087 520.617 90.88C520.413 90.5513 520.136 90.2963 519.784 90.115C519.444 89.9223 519.059 89.826 518.628 89.826C518.243 89.826 517.886 89.9223 517.557 90.115C517.24 90.2963 516.968 90.5513 516.741 90.88C516.526 91.1973 516.39 91.5657 516.333 91.985H520.923ZM529.823 97L529.687 95.759C529.426 96.1897 529.086 96.524 528.667 96.762C528.259 96.9887 527.726 97.102 527.069 97.102C526.457 97.102 525.935 97.0057 525.505 96.813C525.074 96.609 524.74 96.3313 524.502 95.98C524.275 95.6173 524.162 95.198 524.162 94.722C524.162 94.008 524.428 93.4187 524.961 92.954C525.493 92.478 526.264 92.1833 527.273 92.07L529.687 91.798V91.135C529.687 90.7723 529.539 90.4663 529.245 90.217C528.95 89.9563 528.525 89.826 527.97 89.826C527.448 89.826 527.006 89.9507 526.644 90.2C526.281 90.438 526.037 90.795 525.913 91.271L524.485 90.761C524.7 90.013 525.119 89.4293 525.743 89.01C526.377 88.5907 527.142 88.381 528.038 88.381C529.103 88.381 529.913 88.6473 530.469 89.18C531.024 89.7127 531.302 90.4153 531.302 91.288V97H529.823ZM529.687 93.107L527.358 93.396C526.859 93.464 526.485 93.6057 526.236 93.821C525.986 94.025 525.862 94.297 525.862 94.637C525.862 94.9543 525.981 95.2207 526.219 95.436C526.468 95.64 526.814 95.742 527.256 95.742C527.8 95.742 528.253 95.64 528.616 95.436C528.978 95.232 529.245 94.9487 529.415 94.586C529.596 94.212 529.687 93.7813 529.687 93.294V93.107ZM533.602 88.5H535.064L535.166 89.486C535.438 89.146 535.778 88.8797 536.186 88.687C536.594 88.483 537.053 88.381 537.563 88.381C538.141 88.381 538.663 88.5113 539.127 88.772C539.603 89.0213 539.977 89.3953 540.249 89.894C540.533 89.3953 540.935 89.0213 541.456 88.772C541.978 88.5113 542.55 88.381 543.173 88.381C543.819 88.381 544.386 88.5227 544.873 88.806C545.372 89.078 545.757 89.486 546.029 90.03C546.301 90.574 546.437 91.254 546.437 92.07V97H544.822V92.274C544.822 91.4807 544.652 90.88 544.312 90.472C543.972 90.0527 543.485 89.843 542.85 89.843C542.204 89.843 541.694 90.0583 541.32 90.489C540.946 90.9197 540.759 91.5487 540.759 92.376V97H539.144V92.274C539.144 91.4807 538.986 90.88 538.668 90.472C538.351 90.0527 537.875 89.843 537.24 89.843C536.594 89.843 536.09 90.0583 535.727 90.489C535.376 90.9197 535.2 91.5487 535.2 92.376V97H533.602V88.5Z" fill="black"/>
<path d="M81.775 238L126 200.654L170.225 238L126 275.346L81.775 238Z" fill="#FFEDD4" stroke="black"/>
<path d="M88.7939 238L125 208.644L161.206 238L125 267.356L88.7939 238Z" fill="#FFEDD4" stroke="black"/>
<path d="M111.462 231.4H113.262V236.854H119.598V231.4H121.38V244H119.598V238.366H113.262V244H111.462V231.4ZM129.605 244L129.461 242.686C129.185 243.142 128.825 243.496 128.381 243.748C127.949 243.988 127.385 244.108 126.689 244.108C126.041 244.108 125.489 244.006 125.033 243.802C124.577 243.586 124.223 243.292 123.971 242.92C123.731 242.536 123.611 242.092 123.611 241.588C123.611 240.832 123.893 240.208 124.457 239.716C125.021 239.212 125.837 238.9 126.905 238.78L129.461 238.492V237.79C129.461 237.406 129.305 237.082 128.993 236.818C128.681 236.542 128.231 236.404 127.643 236.404C127.091 236.404 126.623 236.536 126.239 236.8C125.855 237.052 125.597 237.43 125.465 237.934L123.953 237.394C124.181 236.602 124.625 235.984 125.285 235.54C125.957 235.096 126.767 234.874 127.715 234.874C128.843 234.874 129.701 235.156 130.289 235.72C130.877 236.284 131.171 237.028 131.171 237.952V244H129.605ZM129.461 239.878L126.995 240.184C126.467 240.256 126.071 240.406 125.807 240.634C125.543 240.85 125.411 241.138 125.411 241.498C125.411 241.834 125.537 242.116 125.789 242.344C126.053 242.56 126.419 242.668 126.887 242.668C127.463 242.668 127.943 242.56 128.327 242.344C128.711 242.128 128.993 241.828 129.173 241.444C129.365 241.048 129.461 240.592 129.461 240.076V239.878ZM134.616 241.156C134.7 241.516 134.844 241.798 135.048 242.002C135.252 242.206 135.492 242.356 135.768 242.452C136.056 242.536 136.356 242.578 136.668 242.578C137.208 242.578 137.628 242.47 137.928 242.254C138.228 242.038 138.378 241.768 138.378 241.444C138.378 241.168 138.282 240.952 138.09 240.796C137.91 240.628 137.664 240.496 137.352 240.4C137.052 240.304 136.728 240.214 136.38 240.13C136.068 240.046 135.726 239.95 135.354 239.842C134.994 239.734 134.652 239.59 134.328 239.41C134.016 239.218 133.758 238.978 133.554 238.69C133.35 238.39 133.248 238.012 133.248 237.556C133.248 237.016 133.392 236.548 133.68 236.152C133.98 235.744 134.388 235.432 134.904 235.216C135.432 234.988 136.026 234.874 136.686 234.874C137.454 234.874 138.126 235.042 138.702 235.378C139.29 235.702 139.716 236.194 139.98 236.854L138.45 237.358C138.366 237.13 138.228 236.944 138.036 236.8C137.844 236.656 137.622 236.56 137.37 236.512C137.13 236.452 136.89 236.422 136.65 236.422C136.194 236.422 135.816 236.512 135.516 236.692C135.216 236.872 135.066 237.136 135.066 237.484C135.066 237.676 135.114 237.838 135.21 237.97C135.306 238.09 135.438 238.192 135.606 238.276C135.786 238.348 135.996 238.414 136.236 238.474C136.476 238.534 136.734 238.6 137.01 238.672C137.37 238.78 137.736 238.9 138.108 239.032C138.48 239.152 138.822 239.308 139.134 239.5C139.446 239.692 139.698 239.944 139.89 240.256C140.082 240.568 140.184 240.952 140.196 241.408C140.196 241.936 140.046 242.404 139.746 242.812C139.458 243.22 139.044 243.544 138.504 243.784C137.976 244.012 137.346 244.126 136.614 244.126C135.726 244.126 134.97 243.928 134.346 243.532C133.722 243.136 133.302 242.524 133.086 241.696L134.616 241.156Z" fill="black"/>
<path d="M270.775 91L315 53.6544L359.225 91L315 128.346L270.775 91Z" fill="#FFEDD4" stroke="black"/>
<path d="M277.794 91L314 61.6437L350.206 91L314 120.356L277.794 91Z" fill="#FFEDD4" stroke="black"/>
<path d="M300.462 84.4H302.262V89.854H308.598V84.4H310.38V97H308.598V91.366H302.262V97H300.462V84.4ZM318.605 97L318.461 95.686C318.185 96.142 317.825 96.496 317.381 96.748C316.949 96.988 316.385 97.108 315.689 97.108C315.041 97.108 314.489 97.006 314.033 96.802C313.577 96.586 313.223 96.292 312.971 95.92C312.731 95.536 312.611 95.092 312.611 94.588C312.611 93.832 312.893 93.208 313.457 92.716C314.021 92.212 314.837 91.9 315.905 91.78L318.461 91.492V90.79C318.461 90.406 318.305 90.082 317.993 89.818C317.681 89.542 317.231 89.404 316.643 89.404C316.091 89.404 315.623 89.536 315.239 89.8C314.855 90.052 314.597 90.43 314.465 90.934L312.953 90.394C313.181 89.602 313.625 88.984 314.285 88.54C314.957 88.096 315.767 87.874 316.715 87.874C317.843 87.874 318.701 88.156 319.289 88.72C319.877 89.284 320.171 90.028 320.171 90.952V97H318.605ZM318.461 92.878L315.995 93.184C315.467 93.256 315.071 93.406 314.807 93.634C314.543 93.85 314.411 94.138 314.411 94.498C314.411 94.834 314.537 95.116 314.789 95.344C315.053 95.56 315.419 95.668 315.887 95.668C316.463 95.668 316.943 95.56 317.327 95.344C317.711 95.128 317.993 94.828 318.173 94.444C318.365 94.048 318.461 93.592 318.461 93.076V92.878ZM323.616 94.156C323.7 94.516 323.844 94.798 324.048 95.002C324.252 95.206 324.492 95.356 324.768 95.452C325.056 95.536 325.356 95.578 325.668 95.578C326.208 95.578 326.628 95.47 326.928 95.254C327.228 95.038 327.378 94.768 327.378 94.444C327.378 94.168 327.282 93.952 327.09 93.796C326.91 93.628 326.664 93.496 326.352 93.4C326.052 93.304 325.728 93.214 325.38 93.13C325.068 93.046 324.726 92.95 324.354 92.842C323.994 92.734 323.652 92.59 323.328 92.41C323.016 92.218 322.758 91.978 322.554 91.69C322.35 91.39 322.248 91.012 322.248 90.556C322.248 90.016 322.392 89.548 322.68 89.152C322.98 88.744 323.388 88.432 323.904 88.216C324.432 87.988 325.026 87.874 325.686 87.874C326.454 87.874 327.126 88.042 327.702 88.378C328.29 88.702 328.716 89.194 328.98 89.854L327.45 90.358C327.366 90.13 327.228 89.944 327.036 89.8C326.844 89.656 326.622 89.56 326.37 89.512C326.13 89.452 325.89 89.422 325.65 89.422C325.194 89.422 324.816 89.512 324.516 89.692C324.216 89.872 324.066 90.136 324.066 90.484C324.066 90.676 324.114 90.838 324.21 90.97C324.306 91.09 324.438 91.192 324.606 91.276C324.786 91.348 324.996 91.414 325.236 91.474C325.476 91.534 325.734 91.6 326.01 91.672C326.37 91.78 326.736 91.9 327.108 92.032C327.48 92.152 327.822 92.308 328.134 92.5C328.446 92.692 328.698 92.944 328.89 93.256C329.082 93.568 329.184 93.952 329.196 94.408C329.196 94.936 329.046 95.404 328.746 95.812C328.458 96.22 328.044 96.544 327.504 96.784C326.976 97.012 326.346 97.126 325.614 97.126C324.726 97.126 323.97 96.928 323.346 96.532C322.722 96.136 322.302 95.524 322.086 94.696L323.616 94.156Z" fill="black"/>
<rect x="809.5" y="347.5" width="145" height="75" fill="#DBEAFE" stroke="black"/>
<path d="M848.473 378.4V391H846.637L840.355 381.244V391H838.555V378.4H840.391L846.673 388.12V378.4H848.473ZM856.681 391L856.537 389.686C856.261 390.142 855.901 390.496 855.457 390.748C855.025 390.988 854.461 391.108 853.765 391.108C853.117 391.108 852.565 391.006 852.109 390.802C851.653 390.586 851.299 390.292 851.047 389.92C850.807 389.536 850.687 389.092 850.687 388.588C850.687 387.832 850.969 387.208 851.533 386.716C852.097 386.212 852.913 385.9 853.981 385.78L856.537 385.492V384.79C856.537 384.406 856.381 384.082 856.069 383.818C855.757 383.542 855.307 383.404 854.719 383.404C854.167 383.404 853.699 383.536 853.315 383.8C852.931 384.052 852.673 384.43 852.541 384.934L851.029 384.394C851.257 383.602 851.701 382.984 852.361 382.54C853.033 382.096 853.843 381.874 854.791 381.874C855.919 381.874 856.777 382.156 857.365 382.72C857.953 383.284 858.247 384.028 858.247 384.952V391H856.681ZM856.537 386.878L854.071 387.184C853.543 387.256 853.147 387.406 852.883 387.634C852.619 387.85 852.487 388.138 852.487 388.498C852.487 388.834 852.613 389.116 852.865 389.344C853.129 389.56 853.495 389.668 853.963 389.668C854.539 389.668 855.019 389.56 855.403 389.344C855.787 389.128 856.069 388.828 856.249 388.444C856.441 388.048 856.537 387.592 856.537 387.076V386.878ZM861.259 382V379.48H862.969V382H865.219V383.512H862.969V387.94C862.969 388.492 863.077 388.882 863.293 389.11C863.521 389.338 863.803 389.47 864.139 389.506C864.487 389.53 864.847 389.518 865.219 389.47V390.928C864.727 391.036 864.241 391.066 863.761 391.018C863.293 390.982 862.867 390.85 862.483 390.622C862.111 390.394 861.811 390.064 861.583 389.632C861.367 389.188 861.259 388.624 861.259 387.94V383.512H859.963V382H861.259ZM867.386 382H869.096V391H867.386V382ZM868.25 380.416C867.926 380.416 867.656 380.308 867.44 380.092C867.224 379.876 867.116 379.612 867.116 379.3C867.116 378.976 867.224 378.706 867.44 378.49C867.656 378.262 867.926 378.148 868.25 378.148C868.562 378.148 868.826 378.262 869.042 378.49C869.27 378.706 869.384 378.976 869.384 379.3C869.384 379.612 869.27 379.876 869.042 380.092C868.826 380.308 868.562 380.416 868.25 380.416ZM875.875 391.126C875.023 391.126 874.255 390.94 873.571 390.568C872.899 390.184 872.371 389.65 871.987 388.966C871.603 388.27 871.411 387.454 871.411 386.518C871.411 385.57 871.609 384.748 872.005 384.052C872.401 383.356 872.941 382.822 873.625 382.45C874.309 382.066 875.077 381.874 875.929 381.874C876.781 381.874 877.549 382.066 878.233 382.45C878.929 382.822 879.475 383.356 879.871 384.052C880.267 384.736 880.465 385.546 880.465 386.482C880.465 387.43 880.261 388.252 879.853 388.948C879.457 389.644 878.911 390.184 878.215 390.568C877.519 390.94 876.739 391.126 875.875 391.126ZM875.857 389.578C876.337 389.578 876.787 389.47 877.207 389.254C877.627 389.026 877.969 388.684 878.233 388.228C878.509 387.772 878.647 387.19 878.647 386.482C878.647 385.786 878.515 385.216 878.251 384.772C877.999 384.316 877.663 383.98 877.243 383.764C876.823 383.536 876.373 383.422 875.893 383.422C875.425 383.422 874.987 383.536 874.579 383.764C874.183 383.98 873.859 384.316 873.607 384.772C873.355 385.228 873.229 385.81 873.229 386.518C873.229 387.214 873.349 387.79 873.589 388.246C873.841 388.69 874.165 389.026 874.561 389.254C874.957 389.47 875.389 389.578 875.857 389.578ZM882.532 382H884.08L884.188 383.044C884.476 382.672 884.842 382.384 885.286 382.18C885.73 381.976 886.222 381.874 886.762 381.874C887.458 381.874 888.058 382.024 888.562 382.324C889.078 382.612 889.474 383.044 889.75 383.62C890.038 384.196 890.182 384.916 890.182 385.78V391H888.49V385.996C888.49 385.156 888.31 384.52 887.95 384.088C887.602 383.644 887.092 383.422 886.42 383.422C885.724 383.422 885.184 383.65 884.8 384.106C884.416 384.55 884.224 385.21 884.224 386.086V391H882.532V382ZM898.112 391L897.968 389.686C897.692 390.142 897.332 390.496 896.888 390.748C896.456 390.988 895.892 391.108 895.196 391.108C894.548 391.108 893.996 391.006 893.54 390.802C893.084 390.586 892.73 390.292 892.478 389.92C892.238 389.536 892.118 389.092 892.118 388.588C892.118 387.832 892.4 387.208 892.964 386.716C893.528 386.212 894.344 385.9 895.412 385.78L897.968 385.492V384.79C897.968 384.406 897.812 384.082 897.5 383.818C897.188 383.542 896.738 383.404 896.15 383.404C895.598 383.404 895.13 383.536 894.746 383.8C894.362 384.052 894.104 384.43 893.972 384.934L892.46 384.394C892.688 383.602 893.132 382.984 893.792 382.54C894.464 382.096 895.274 381.874 896.222 381.874C897.35 381.874 898.208 382.156 898.796 382.72C899.384 383.284 899.678 384.028 899.678 384.952V391H898.112ZM897.968 386.878L895.502 387.184C894.974 387.256 894.578 387.406 894.314 387.634C894.05 387.85 893.918 388.138 893.918 388.498C893.918 388.834 894.044 389.116 894.296 389.344C894.56 389.56 894.926 389.668 895.394 389.668C895.97 389.668 896.45 389.56 896.834 389.344C897.218 389.128 897.5 388.828 897.68 388.444C897.872 388.048 897.968 387.592 897.968 387.076V386.878ZM902.114 378.04H903.806V391H902.114V378.04ZM906.656 382H908.366V391H906.656V382ZM907.52 380.416C907.196 380.416 906.926 380.308 906.71 380.092C906.494 379.876 906.386 379.612 906.386 379.3C906.386 378.976 906.494 378.706 906.71 378.49C906.926 378.262 907.196 378.148 907.52 378.148C907.832 378.148 908.096 378.262 908.312 378.49C908.54 378.706 908.654 378.976 908.654 379.3C908.654 379.612 908.54 379.876 908.312 380.092C908.096 380.308 907.832 380.416 907.52 380.416ZM911.778 382V379.48H913.488V382H915.738V383.512H913.488V387.94C913.488 388.492 913.596 388.882 913.812 389.11C914.04 389.338 914.322 389.47 914.658 389.506C915.006 389.53 915.366 389.518 915.738 389.47V390.928C915.246 391.036 914.76 391.066 914.28 391.018C913.812 390.982 913.386 390.85 913.002 390.622C912.63 390.394 912.33 390.064 912.102 389.632C911.886 389.188 911.778 388.624 911.778 387.94V383.512H910.482V382H911.778ZM923.774 382H925.538L920.318 394.6H918.644L920.228 390.82L916.664 382H918.536L921.146 388.822L923.774 382Z" fill="black"/>
<rect x="809.5" y="53.5" width="145" height="75" fill="#DBEAFE" stroke="black"/>
<path d="M854.019 90.394C854.607 90.394 855.087 90.304 855.459 90.124C855.843 89.932 856.125 89.668 856.305 89.332C856.485 88.996 856.575 88.606 856.575 88.162C856.575 87.454 856.371 86.902 855.963 86.506C855.555 86.11 854.907 85.912 854.019 85.912H851.121V90.394H854.019ZM858.375 88.162C858.375 88.618 858.297 89.074 858.141 89.53C857.985 89.974 857.733 90.376 857.385 90.736C857.037 91.096 856.581 91.384 856.017 91.6C855.465 91.804 854.799 91.906 854.019 91.906H851.121V97H849.321V84.4H854.019C855.003 84.4 855.813 84.574 856.449 84.922C857.097 85.258 857.577 85.714 857.889 86.29C858.213 86.854 858.375 87.478 858.375 88.162ZM864.335 97.126C863.483 97.126 862.715 96.94 862.031 96.568C861.359 96.184 860.831 95.65 860.447 94.966C860.063 94.27 859.871 93.454 859.871 92.518C859.871 91.57 860.069 90.748 860.465 90.052C860.861 89.356 861.401 88.822 862.085 88.45C862.769 88.066 863.537 87.874 864.389 87.874C865.241 87.874 866.009 88.066 866.693 88.45C867.389 88.822 867.935 89.356 868.331 90.052C868.727 90.736 868.925 91.546 868.925 92.482C868.925 93.43 868.721 94.252 868.313 94.948C867.917 95.644 867.371 96.184 866.675 96.568C865.979 96.94 865.199 97.126 864.335 97.126ZM864.317 95.578C864.797 95.578 865.247 95.47 865.667 95.254C866.087 95.026 866.429 94.684 866.693 94.228C866.969 93.772 867.107 93.19 867.107 92.482C867.107 91.786 866.975 91.216 866.711 90.772C866.459 90.316 866.123 89.98 865.703 89.764C865.283 89.536 864.833 89.422 864.353 89.422C863.885 89.422 863.447 89.536 863.039 89.764C862.643 89.98 862.319 90.316 862.067 90.772C861.815 91.228 861.689 91.81 861.689 92.518C861.689 93.214 861.809 93.79 862.049 94.246C862.301 94.69 862.625 95.026 863.021 95.254C863.417 95.47 863.849 95.578 864.317 95.578ZM872 94.156C872.084 94.516 872.228 94.798 872.432 95.002C872.636 95.206 872.876 95.356 873.152 95.452C873.44 95.536 873.74 95.578 874.052 95.578C874.592 95.578 875.012 95.47 875.312 95.254C875.612 95.038 875.762 94.768 875.762 94.444C875.762 94.168 875.666 93.952 875.474 93.796C875.294 93.628 875.048 93.496 874.736 93.4C874.436 93.304 874.112 93.214 873.764 93.13C873.452 93.046 873.11 92.95 872.738 92.842C872.378 92.734 872.036 92.59 871.712 92.41C871.4 92.218 871.142 91.978 870.938 91.69C870.734 91.39 870.632 91.012 870.632 90.556C870.632 90.016 870.776 89.548 871.064 89.152C871.364 88.744 871.772 88.432 872.288 88.216C872.816 87.988 873.41 87.874 874.07 87.874C874.838 87.874 875.51 88.042 876.086 88.378C876.674 88.702 877.1 89.194 877.364 89.854L875.834 90.358C875.75 90.13 875.612 89.944 875.42 89.8C875.228 89.656 875.006 89.56 874.754 89.512C874.514 89.452 874.274 89.422 874.034 89.422C873.578 89.422 873.2 89.512 872.9 89.692C872.6 89.872 872.45 90.136 872.45 90.484C872.45 90.676 872.498 90.838 872.594 90.97C872.69 91.09 872.822 91.192 872.99 91.276C873.17 91.348 873.38 91.414 873.62 91.474C873.86 91.534 874.118 91.6 874.394 91.672C874.754 91.78 875.12 91.9 875.492 92.032C875.864 92.152 876.206 92.308 876.518 92.5C876.83 92.692 877.082 92.944 877.274 93.256C877.466 93.568 877.568 93.952 877.58 94.408C877.58 94.936 877.43 95.404 877.13 95.812C876.842 96.22 876.428 96.544 875.888 96.784C875.36 97.012 874.73 97.126 873.998 97.126C873.11 97.126 872.354 96.928 871.73 96.532C871.106 96.136 870.686 95.524 870.47 94.696L872 94.156ZM879.911 88H881.621V97H879.911V88ZM880.775 86.416C880.451 86.416 880.181 86.308 879.965 86.092C879.749 85.876 879.641 85.612 879.641 85.3C879.641 84.976 879.749 84.706 879.965 84.49C880.181 84.262 880.451 84.148 880.775 84.148C881.087 84.148 881.351 84.262 881.567 84.49C881.795 84.706 881.909 84.976 881.909 85.3C881.909 85.612 881.795 85.876 881.567 86.092C881.351 86.308 881.087 86.416 880.775 86.416ZM885.033 88V85.48H886.743V88H888.993V89.512H886.743V93.94C886.743 94.492 886.851 94.882 887.067 95.11C887.295 95.338 887.577 95.47 887.913 95.506C888.261 95.53 888.621 95.518 888.993 95.47V96.928C888.501 97.036 888.015 97.066 887.535 97.018C887.067 96.982 886.641 96.85 886.257 96.622C885.885 96.394 885.585 96.064 885.357 95.632C885.141 95.188 885.033 94.624 885.033 93.94V89.512H883.737V88H885.033ZM891.161 88H892.871V97H891.161V88ZM892.025 86.416C891.701 86.416 891.431 86.308 891.215 86.092C890.999 85.876 890.891 85.612 890.891 85.3C890.891 84.976 890.999 84.706 891.215 84.49C891.431 84.262 891.701 84.148 892.025 84.148C892.337 84.148 892.601 84.262 892.817 84.49C893.045 84.706 893.159 84.976 893.159 85.3C893.159 85.612 893.045 85.876 892.817 86.092C892.601 86.308 892.337 86.416 892.025 86.416ZM899.649 97.126C898.797 97.126 898.029 96.94 897.345 96.568C896.673 96.184 896.145 95.65 895.761 94.966C895.377 94.27 895.185 93.454 895.185 92.518C895.185 91.57 895.383 90.748 895.779 90.052C896.175 89.356 896.715 88.822 897.399 88.45C898.083 88.066 898.851 87.874 899.703 87.874C900.555 87.874 901.323 88.066 902.007 88.45C902.703 88.822 903.249 89.356 903.645 90.052C904.041 90.736 904.239 91.546 904.239 92.482C904.239 93.43 904.035 94.252 903.627 94.948C903.231 95.644 902.685 96.184 901.989 96.568C901.293 96.94 900.513 97.126 899.649 97.126ZM899.631 95.578C900.111 95.578 900.561 95.47 900.981 95.254C901.401 95.026 901.743 94.684 902.007 94.228C902.283 93.772 902.421 93.19 902.421 92.482C902.421 91.786 902.289 91.216 902.025 90.772C901.773 90.316 901.437 89.98 901.017 89.764C900.597 89.536 900.147 89.422 899.667 89.422C899.199 89.422 898.761 89.536 898.353 89.764C897.957 89.98 897.633 90.316 897.381 90.772C897.129 91.228 897.003 91.81 897.003 92.518C897.003 93.214 897.123 93.79 897.363 94.246C897.615 94.69 897.939 95.026 898.335 95.254C898.731 95.47 899.163 95.578 899.631 95.578ZM906.307 88H907.855L907.963 89.044C908.251 88.672 908.617 88.384 909.061 88.18C909.505 87.976 909.997 87.874 910.537 87.874C911.233 87.874 911.833 88.024 912.337 88.324C912.853 88.612 913.249 89.044 913.525 89.62C913.813 90.196 913.957 90.916 913.957 91.78V97H912.265V91.996C912.265 91.156 912.085 90.52 911.725 90.088C911.377 89.644 910.867 89.422 910.195 89.422C909.499 89.422 908.959 89.65 908.575 90.106C908.191 90.55 907.999 91.21 907.999 92.086V97H906.307V88Z" fill="black"/>
<path d="M563.5 533C563.5 543.262 556.931 552.625 546.159 559.448C535.393 566.266 520.489 570.5 504 570.5C487.511 570.5 472.607 566.266 461.841 559.448C451.069 552.625 444.5 543.262 444.5 533C444.5 522.738 451.069 513.375 461.841 506.552C472.607 499.734 487.511 495.5 504 495.5C520.489 495.5 535.393 499.734 546.159 506.552C556.931 513.375 563.5 522.738 563.5 533Z" fill="#DCFCE7" stroke="black"/>
<path d="M482.997 515.4H484.797V524.526C484.797 525.246 484.641 525.876 484.329 526.416C484.017 526.956 483.591 527.376 483.051 527.676C482.511 527.976 481.887 528.126 481.179 528.126C480.303 528.126 479.577 527.916 479.001 527.496C478.425 527.064 478.029 526.464 477.813 525.696L479.343 525.174C479.427 525.45 479.547 525.696 479.703 525.912C479.859 526.128 480.057 526.302 480.297 526.434C480.549 526.554 480.843 526.614 481.179 526.614C481.587 526.614 481.923 526.518 482.187 526.326C482.451 526.134 482.649 525.888 482.781 525.588C482.925 525.276 482.997 524.946 482.997 524.598V515.4ZM491.343 528.126C490.479 528.126 489.711 527.928 489.039 527.532C488.379 527.124 487.857 526.566 487.473 525.858C487.101 525.15 486.915 524.34 486.915 523.428C486.915 522.552 487.101 521.772 487.473 521.088C487.845 520.404 488.355 519.864 489.003 519.468C489.663 519.072 490.407 518.874 491.235 518.874C492.075 518.874 492.819 519.06 493.467 519.432C494.115 519.792 494.619 520.302 494.979 520.962C495.339 521.61 495.513 522.36 495.501 523.212C495.501 523.356 495.495 523.506 495.483 523.662C495.471 523.806 495.453 523.968 495.429 524.148H488.769C488.805 524.628 488.937 525.054 489.165 525.426C489.405 525.786 489.705 526.068 490.065 526.272C490.437 526.476 490.857 526.578 491.325 526.578C491.925 526.578 492.447 526.464 492.891 526.236C493.335 525.996 493.647 525.678 493.827 525.282L495.303 525.804C494.943 526.536 494.415 527.106 493.719 527.514C493.035 527.922 492.243 528.126 491.343 528.126ZM493.647 522.69C493.647 522.258 493.539 521.868 493.323 521.52C493.107 521.172 492.813 520.902 492.441 520.71C492.081 520.506 491.673 520.404 491.217 520.404C490.809 520.404 490.431 520.506 490.083 520.71C489.747 520.902 489.459 521.172 489.219 521.52C488.991 521.856 488.847 522.246 488.787 522.69H493.647ZM497.579 519H499.127L499.235 520.206C499.487 519.894 499.775 519.636 500.099 519.432C500.435 519.216 500.795 519.066 501.179 518.982C501.575 518.898 501.983 518.904 502.403 519V520.602C502.007 520.506 501.623 520.494 501.251 520.566C500.879 520.638 500.543 520.794 500.243 521.034C499.955 521.262 499.721 521.568 499.541 521.952C499.361 522.336 499.271 522.798 499.271 523.338V528H497.579V519ZM505.126 525.156C505.21 525.516 505.354 525.798 505.558 526.002C505.762 526.206 506.002 526.356 506.278 526.452C506.566 526.536 506.866 526.578 507.178 526.578C507.718 526.578 508.138 526.47 508.438 526.254C508.738 526.038 508.888 525.768 508.888 525.444C508.888 525.168 508.792 524.952 508.6 524.796C508.42 524.628 508.174 524.496 507.862 524.4C507.562 524.304 507.238 524.214 506.89 524.13C506.578 524.046 506.236 523.95 505.864 523.842C505.504 523.734 505.162 523.59 504.838 523.41C504.526 523.218 504.268 522.978 504.064 522.69C503.86 522.39 503.758 522.012 503.758 521.556C503.758 521.016 503.902 520.548 504.19 520.152C504.49 519.744 504.898 519.432 505.414 519.216C505.942 518.988 506.536 518.874 507.196 518.874C507.964 518.874 508.636 519.042 509.212 519.378C509.8 519.702 510.226 520.194 510.49 520.854L508.96 521.358C508.876 521.13 508.738 520.944 508.546 520.8C508.354 520.656 508.132 520.56 507.88 520.512C507.64 520.452 507.4 520.422 507.16 520.422C506.704 520.422 506.326 520.512 506.026 520.692C505.726 520.872 505.576 521.136 505.576 521.484C505.576 521.676 505.624 521.838 505.72 521.97C505.816 522.09 505.948 522.192 506.116 522.276C506.296 522.348 506.506 522.414 506.746 522.474C506.986 522.534 507.244 522.6 507.52 522.672C507.88 522.78 508.246 522.9 508.618 523.032C508.99 523.152 509.332 523.308 509.644 523.5C509.956 523.692 510.208 523.944 510.4 524.256C510.592 524.568 510.694 524.952 510.706 525.408C510.706 525.936 510.556 526.404 510.256 526.812C509.968 527.22 509.554 527.544 509.014 527.784C508.486 528.012 507.856 528.126 507.124 528.126C506.236 528.126 505.48 527.928 504.856 527.532C504.232 527.136 503.812 526.524 503.596 525.696L505.126 525.156ZM516.673 528.126C515.809 528.126 515.041 527.928 514.369 527.532C513.709 527.124 513.187 526.566 512.803 525.858C512.431 525.15 512.245 524.34 512.245 523.428C512.245 522.552 512.431 521.772 512.803 521.088C513.175 520.404 513.685 519.864 514.333 519.468C514.993 519.072 515.737 518.874 516.565 518.874C517.405 518.874 518.149 519.06 518.797 519.432C519.445 519.792 519.949 520.302 520.309 520.962C520.669 521.61 520.843 522.36 520.831 523.212C520.831 523.356 520.825 523.506 520.813 523.662C520.801 523.806 520.783 523.968 520.759 524.148H514.099C514.135 524.628 514.267 525.054 514.495 525.426C514.735 525.786 515.035 526.068 515.395 526.272C515.767 526.476 516.187 526.578 516.655 526.578C517.255 526.578 517.777 526.464 518.221 526.236C518.665 525.996 518.977 525.678 519.157 525.282L520.633 525.804C520.273 526.536 519.745 527.106 519.049 527.514C518.365 527.922 517.573 528.126 516.673 528.126ZM518.977 522.69C518.977 522.258 518.869 521.868 518.653 521.52C518.437 521.172 518.143 520.902 517.771 520.71C517.411 520.506 517.003 520.404 516.547 520.404C516.139 520.404 515.761 520.506 515.413 520.71C515.077 520.902 514.789 521.172 514.549 521.52C514.321 521.856 514.177 522.246 514.117 522.69H518.977ZM529.047 519H530.811L525.591 531.6H523.917L525.501 527.82L521.937 519H523.809L526.419 525.822L529.047 519ZM482.17 537.4V550H480.334L474.052 540.244V550H472.252V537.4H474.088L480.37 547.12V537.4H482.17ZM492.412 550H490.864L490.738 548.938C490.45 549.322 490.084 549.616 489.64 549.82C489.208 550.024 488.722 550.126 488.182 550.126C487.486 550.126 486.88 549.982 486.364 549.694C485.848 549.394 485.446 548.962 485.158 548.398C484.882 547.822 484.744 547.108 484.744 546.256V541H486.454V546.04C486.454 546.868 486.622 547.498 486.958 547.93C487.306 548.362 487.828 548.578 488.524 548.578C489.208 548.578 489.742 548.356 490.126 547.912C490.522 547.468 490.72 546.808 490.72 545.932V541H492.412V550ZM494.978 541H496.526L496.634 542.044C496.922 541.684 497.282 541.402 497.714 541.198C498.146 540.982 498.632 540.874 499.172 540.874C499.784 540.874 500.336 541.012 500.828 541.288C501.332 541.552 501.728 541.948 502.016 542.476C502.316 541.948 502.742 541.552 503.294 541.288C503.846 541.012 504.452 540.874 505.112 540.874C505.796 540.874 506.396 541.024 506.912 541.324C507.44 541.612 507.848 542.044 508.136 542.62C508.424 543.196 508.568 543.916 508.568 544.78V550H506.858V544.996C506.858 544.156 506.678 543.52 506.318 543.088C505.958 542.644 505.442 542.422 504.77 542.422C504.086 542.422 503.546 542.65 503.15 543.106C502.754 543.562 502.556 544.228 502.556 545.104V550H500.846V544.996C500.846 544.156 500.678 543.52 500.342 543.088C500.006 542.644 499.502 542.422 498.83 542.422C498.146 542.422 497.612 542.65 497.228 543.106C496.856 543.562 496.67 544.228 496.67 545.104V550H494.978V541ZM512.503 542.53C512.779 542.062 513.187 541.672 513.727 541.36C514.279 541.036 514.945 540.874 515.725 540.874C516.541 540.874 517.255 541.066 517.867 541.45C518.479 541.834 518.953 542.374 519.289 543.07C519.637 543.766 519.811 544.576 519.811 545.5C519.811 546.424 519.637 547.234 519.289 547.93C518.941 548.626 518.461 549.166 517.849 549.55C517.237 549.934 516.529 550.126 515.725 550.126C514.993 550.126 514.369 549.982 513.853 549.694C513.349 549.406 512.953 549.058 512.665 548.65L512.539 550H510.991V537.04H512.683V542.584L512.503 542.53ZM517.975 545.5C517.975 544.576 517.729 543.832 517.237 543.268C516.757 542.704 516.127 542.422 515.347 542.422C514.843 542.422 514.393 542.548 513.997 542.8C513.601 543.04 513.283 543.388 513.043 543.844C512.803 544.3 512.683 544.852 512.683 545.5C512.683 546.148 512.803 546.706 513.043 547.174C513.283 547.63 513.601 547.978 513.997 548.218C514.393 548.458 514.843 548.578 515.347 548.578C516.127 548.578 516.757 548.296 517.237 547.732C517.729 547.168 517.975 546.424 517.975 545.5ZM525.69 550.126C524.826 550.126 524.058 549.928 523.386 549.532C522.726 549.124 522.204 548.566 521.82 547.858C521.448 547.15 521.262 546.34 521.262 545.428C521.262 544.552 521.448 543.772 521.82 543.088C522.192 542.404 522.702 541.864 523.35 541.468C524.01 541.072 524.754 540.874 525.582 540.874C526.422 540.874 527.166 541.06 527.814 541.432C528.462 541.792 528.966 542.302 529.326 542.962C529.686 543.61 529.86 544.36 529.848 545.212C529.848 545.356 529.842 545.506 529.83 545.662C529.818 545.806 529.8 545.968 529.776 546.148H523.116C523.152 546.628 523.284 547.054 523.512 547.426C523.752 547.786 524.052 548.068 524.412 548.272C524.784 548.476 525.204 548.578 525.672 548.578C526.272 548.578 526.794 548.464 527.238 548.236C527.682 547.996 527.994 547.678 528.174 547.282L529.65 547.804C529.29 548.536 528.762 549.106 528.066 549.514C527.382 549.922 526.59 550.126 525.69 550.126ZM527.994 544.69C527.994 544.258 527.886 543.868 527.67 543.52C527.454 543.172 527.16 542.902 526.788 542.71C526.428 542.506 526.02 542.404 525.564 542.404C525.156 542.404 524.778 542.506 524.43 542.71C524.094 542.902 523.806 543.172 523.566 543.52C523.338 543.856 523.194 544.246 523.134 544.69H527.994ZM531.927 541H533.475L533.583 542.206C533.835 541.894 534.123 541.636 534.447 541.432C534.783 541.216 535.143 541.066 535.527 540.982C535.923 540.898 536.331 540.904 536.751 541V542.602C536.355 542.506 535.971 542.494 535.599 542.566C535.227 542.638 534.891 542.794 534.591 543.034C534.303 543.262 534.069 543.568 533.889 543.952C533.709 544.336 533.619 544.798 533.619 545.338V550H531.927V541Z" fill="black"/>
<path d="M374.5 533C374.5 543.262 367.931 552.625 357.159 559.448C346.393 566.266 331.489 570.5 315 570.5C298.511 570.5 283.607 566.266 272.841 559.448C262.069 552.625 255.5 543.262 255.5 533C255.5 522.738 262.069 513.375 272.841 506.552C283.607 499.734 298.511 495.5 315 495.5C331.489 495.5 346.393 499.734 357.159 506.552C367.931 513.375 374.5 522.738 374.5 533Z" fill="#DCFCE7" stroke="black"/>
<path d="M302.135 526.4V539H300.299L294.017 529.244V539H292.217V526.4H294.053L300.335 536.12V526.4H302.135ZM310.343 539L310.199 537.686C309.923 538.142 309.563 538.496 309.119 538.748C308.687 538.988 308.123 539.108 307.427 539.108C306.779 539.108 306.227 539.006 305.771 538.802C305.315 538.586 304.961 538.292 304.709 537.92C304.469 537.536 304.349 537.092 304.349 536.588C304.349 535.832 304.631 535.208 305.195 534.716C305.759 534.212 306.575 533.9 307.643 533.78L310.199 533.492V532.79C310.199 532.406 310.043 532.082 309.731 531.818C309.419 531.542 308.969 531.404 308.381 531.404C307.829 531.404 307.361 531.536 306.977 531.8C306.593 532.052 306.335 532.43 306.203 532.934L304.691 532.394C304.919 531.602 305.363 530.984 306.023 530.54C306.695 530.096 307.505 529.874 308.453 529.874C309.581 529.874 310.439 530.156 311.027 530.72C311.615 531.284 311.909 532.028 311.909 532.952V539H310.343ZM310.199 534.878L307.733 535.184C307.205 535.256 306.809 535.406 306.545 535.634C306.281 535.85 306.149 536.138 306.149 536.498C306.149 536.834 306.275 537.116 306.527 537.344C306.791 537.56 307.157 537.668 307.625 537.668C308.201 537.668 308.681 537.56 309.065 537.344C309.449 537.128 309.731 536.828 309.911 536.444C310.103 536.048 310.199 535.592 310.199 535.076V534.878ZM314.345 530H315.893L316.001 531.044C316.289 530.684 316.649 530.402 317.081 530.198C317.513 529.982 317.999 529.874 318.539 529.874C319.151 529.874 319.703 530.012 320.195 530.288C320.699 530.552 321.095 530.948 321.383 531.476C321.683 530.948 322.109 530.552 322.661 530.288C323.213 530.012 323.819 529.874 324.479 529.874C325.163 529.874 325.763 530.024 326.279 530.324C326.807 530.612 327.215 531.044 327.503 531.62C327.791 532.196 327.935 532.916 327.935 533.78V539H326.225V533.996C326.225 533.156 326.045 532.52 325.685 532.088C325.325 531.644 324.809 531.422 324.137 531.422C323.453 531.422 322.913 531.65 322.517 532.106C322.121 532.562 321.923 533.228 321.923 534.104V539H320.213V533.996C320.213 533.156 320.045 532.52 319.709 532.088C319.373 531.644 318.869 531.422 318.197 531.422C317.513 531.422 316.979 531.65 316.595 532.106C316.223 532.562 316.037 533.228 316.037 534.104V539H314.345V530ZM334.265 539.126C333.401 539.126 332.633 538.928 331.961 538.532C331.301 538.124 330.779 537.566 330.395 536.858C330.023 536.15 329.837 535.34 329.837 534.428C329.837 533.552 330.023 532.772 330.395 532.088C330.767 531.404 331.277 530.864 331.925 530.468C332.585 530.072 333.329 529.874 334.157 529.874C334.997 529.874 335.741 530.06 336.389 530.432C337.037 530.792 337.541 531.302 337.901 531.962C338.261 532.61 338.435 533.36 338.423 534.212C338.423 534.356 338.417 534.506 338.405 534.662C338.393 534.806 338.375 534.968 338.351 535.148H331.691C331.727 535.628 331.859 536.054 332.087 536.426C332.327 536.786 332.627 537.068 332.987 537.272C333.359 537.476 333.779 537.578 334.247 537.578C334.847 537.578 335.369 537.464 335.813 537.236C336.257 536.996 336.569 536.678 336.749 536.282L338.225 536.804C337.865 537.536 337.337 538.106 336.641 538.514C335.957 538.922 335.165 539.126 334.265 539.126ZM336.569 533.69C336.569 533.258 336.461 532.868 336.245 532.52C336.029 532.172 335.735 531.902 335.363 531.71C335.003 531.506 334.595 531.404 334.139 531.404C333.731 531.404 333.353 531.506 333.005 531.71C332.669 531.902 332.381 532.172 332.141 532.52C331.913 532.856 331.769 533.246 331.708 533.69H336.569Z" fill="black"/>
<path d="M374.5 238C374.5 248.262 367.931 257.625 357.159 264.448C346.393 271.266 331.489 275.5 315 275.5C298.511 275.5 283.607 271.266 272.841 264.448C262.069 257.625 255.5 248.262 255.5 238C255.5 227.738 262.069 218.375 272.841 211.552C283.607 204.734 298.511 200.5 315 200.5C331.489 200.5 346.393 204.734 357.159 211.552C367.931 218.375 374.5 227.738 374.5 238Z" fill="#DCFCE7" stroke="black"/>
<path d="M302.135 231.4V244H300.299L294.017 234.244V244H292.217V231.4H294.053L300.335 241.12V231.4H302.135ZM310.343 244L310.199 242.686C309.923 243.142 309.563 243.496 309.119 243.748C308.687 243.988 308.123 244.108 307.427 244.108C306.779 244.108 306.227 244.006 305.771 243.802C305.315 243.586 304.961 243.292 304.709 242.92C304.469 242.536 304.349 242.092 304.349 241.588C304.349 240.832 304.631 240.208 305.195 239.716C305.759 239.212 306.575 238.9 307.643 238.78L310.199 238.492V237.79C310.199 237.406 310.043 237.082 309.731 236.818C309.419 236.542 308.969 236.404 308.381 236.404C307.829 236.404 307.361 236.536 306.977 236.8C306.593 237.052 306.335 237.43 306.203 237.934L304.691 237.394C304.919 236.602 305.363 235.984 306.023 235.54C306.695 235.096 307.505 234.874 308.453 234.874C309.581 234.874 310.439 235.156 311.027 235.72C311.615 236.284 311.909 237.028 311.909 237.952V244H310.343ZM310.199 239.878L307.733 240.184C307.205 240.256 306.809 240.406 306.545 240.634C306.281 240.85 306.149 241.138 306.149 241.498C306.149 241.834 306.275 242.116 306.527 242.344C306.791 242.56 307.157 242.668 307.625 242.668C308.201 242.668 308.681 242.56 309.065 242.344C309.449 242.128 309.731 241.828 309.911 241.444C310.103 241.048 310.199 240.592 310.199 240.076V239.878ZM314.345 235H315.893L316.001 236.044C316.289 235.684 316.649 235.402 317.081 235.198C317.513 234.982 317.999 234.874 318.539 234.874C319.151 234.874 319.703 235.012 320.195 235.288C320.699 235.552 321.095 235.948 321.383 236.476C321.683 235.948 322.109 235.552 322.661 235.288C323.213 235.012 323.819 234.874 324.479 234.874C325.163 234.874 325.763 235.024 326.279 235.324C326.807 235.612 327.215 236.044 327.503 236.62C327.791 237.196 327.935 237.916 327.935 238.78V244H326.225V238.996C326.225 238.156 326.045 237.52 325.685 237.088C325.325 236.644 324.809 236.422 324.137 236.422C323.453 236.422 322.913 236.65 322.517 237.106C322.121 237.562 321.923 238.228 321.923 239.104V244H320.213V238.996C320.213 238.156 320.045 237.52 319.709 237.088C319.373 236.644 318.869 236.422 318.197 236.422C317.513 236.422 316.979 236.65 316.595 237.106C316.223 237.562 316.037 238.228 316.037 239.104V244H314.345V235ZM334.265 244.126C333.401 244.126 332.633 243.928 331.961 243.532C331.301 243.124 330.779 242.566 330.395 241.858C330.023 241.15 329.837 240.34 329.837 239.428C329.837 238.552 330.023 237.772 330.395 237.088C330.767 236.404 331.277 235.864 331.925 235.468C332.585 235.072 333.329 234.874 334.157 234.874C334.997 234.874 335.741 235.06 336.389 235.432C337.037 235.792 337.541 236.302 337.901 236.962C338.261 237.61 338.435 238.36 338.423 239.212C338.423 239.356 338.417 239.506 338.405 239.662C338.393 239.806 338.375 239.968 338.351 240.148H331.691C331.727 240.628 331.859 241.054 332.087 241.426C332.327 241.786 332.627 242.068 332.987 242.272C333.359 242.476 333.779 242.578 334.247 242.578C334.847 242.578 335.369 242.464 335.813 242.236C336.257 241.996 336.569 241.678 336.749 241.282L338.225 241.804C337.865 242.536 337.337 243.106 336.641 243.514C335.957 243.922 335.165 244.126 334.265 244.126ZM336.569 238.69C336.569 238.258 336.461 237.868 336.245 237.52C336.029 237.172 335.735 236.902 335.363 236.71C335.003 236.506 334.595 236.404 334.139 236.404C333.731 236.404 333.353 236.506 333.005 236.71C332.669 236.902 332.381 237.172 332.141 237.52C331.913 237.856 331.769 238.246 331.708 238.69H336.569Z" fill="black"/>
<path d="M941.5 238C941.5 248.262 934.931 257.625 924.159 264.448C913.393 271.266 898.489 275.5 882 275.5C865.511 275.5 850.607 271.266 839.841 264.448C829.069 257.625 822.5 248.262 822.5 238C822.5 227.738 829.069 218.375 839.841 211.552C850.607 204.734 865.511 200.5 882 200.5C898.489 200.5 913.393 204.734 924.159 211.552C934.931 218.375 941.5 227.738 941.5 238Z" fill="#DCFCE7" stroke="black"/>
<path d="M869.135 231.4V244H867.299L861.017 234.244V244H859.217V231.4H861.053L867.335 241.12V231.4H869.135ZM877.343 244L877.199 242.686C876.923 243.142 876.563 243.496 876.119 243.748C875.687 243.988 875.123 244.108 874.427 244.108C873.779 244.108 873.227 244.006 872.771 243.802C872.315 243.586 871.961 243.292 871.709 242.92C871.469 242.536 871.349 242.092 871.349 241.588C871.349 240.832 871.631 240.208 872.195 239.716C872.759 239.212 873.575 238.9 874.643 238.78L877.199 238.492V237.79C877.199 237.406 877.043 237.082 876.731 236.818C876.419 236.542 875.969 236.404 875.381 236.404C874.829 236.404 874.361 236.536 873.977 236.8C873.593 237.052 873.335 237.43 873.203 237.934L871.691 237.394C871.919 236.602 872.363 235.984 873.023 235.54C873.695 235.096 874.505 234.874 875.453 234.874C876.581 234.874 877.439 235.156 878.027 235.72C878.615 236.284 878.909 237.028 878.909 237.952V244H877.343ZM877.199 239.878L874.733 240.184C874.205 240.256 873.809 240.406 873.545 240.634C873.281 240.85 873.149 241.138 873.149 241.498C873.149 241.834 873.275 242.116 873.527 242.344C873.791 242.56 874.157 242.668 874.625 242.668C875.201 242.668 875.681 242.56 876.065 242.344C876.449 242.128 876.731 241.828 876.911 241.444C877.103 241.048 877.199 240.592 877.199 240.076V239.878ZM881.345 235H882.893L883.001 236.044C883.289 235.684 883.649 235.402 884.081 235.198C884.513 234.982 884.999 234.874 885.539 234.874C886.151 234.874 886.703 235.012 887.195 235.288C887.699 235.552 888.095 235.948 888.383 236.476C888.683 235.948 889.109 235.552 889.661 235.288C890.213 235.012 890.819 234.874 891.479 234.874C892.163 234.874 892.763 235.024 893.279 235.324C893.807 235.612 894.215 236.044 894.503 236.62C894.791 237.196 894.935 237.916 894.935 238.78V244H893.225V238.996C893.225 238.156 893.045 237.52 892.685 237.088C892.325 236.644 891.809 236.422 891.137 236.422C890.453 236.422 889.913 236.65 889.517 237.106C889.121 237.562 888.923 238.228 888.923 239.104V244H887.213V238.996C887.213 238.156 887.045 237.52 886.709 237.088C886.373 236.644 885.869 236.422 885.197 236.422C884.513 236.422 883.979 236.65 883.595 237.106C883.223 237.562 883.037 238.228 883.037 239.104V244H881.345V235ZM901.265 244.126C900.401 244.126 899.633 243.928 898.961 243.532C898.301 243.124 897.779 242.566 897.395 241.858C897.023 241.15 896.837 240.34 896.837 239.428C896.837 238.552 897.023 237.772 897.395 237.088C897.767 236.404 898.277 235.864 898.925 235.468C899.585 235.072 900.329 234.874 901.157 234.874C901.997 234.874 902.741 235.06 903.389 235.432C904.037 235.792 904.541 236.302 904.901 236.962C905.261 237.61 905.435 238.36 905.423 239.212C905.423 239.356 905.417 239.506 905.405 239.662C905.393 239.806 905.375 239.968 905.351 240.148H898.691C898.727 240.628 898.859 241.054 899.087 241.426C899.327 241.786 899.627 242.068 899.987 242.272C900.359 242.476 900.779 242.578 901.247 242.578C901.847 242.578 902.369 242.464 902.813 242.236C903.257 241.996 903.569 241.678 903.749 241.282L905.225 241.804C904.865 242.536 904.337 243.106 903.641 243.514C902.957 243.922 902.165 244.126 901.265 244.126ZM903.569 238.69C903.569 238.258 903.461 237.868 903.245 237.52C903.029 237.172 902.735 236.902 902.363 236.71C902.003 236.506 901.595 236.404 901.139 236.404C900.731 236.404 900.353 236.506 900.005 236.71C899.669 236.902 899.381 237.172 899.141 237.52C898.913 237.856 898.769 238.246 898.708 238.69H903.569Z" fill="black"/>
<path d="M941.5 533C941.5 543.262 934.931 552.625 924.159 559.448C913.393 566.266 898.489 570.5 882 570.5C865.511 570.5 850.607 566.266 839.841 559.448C829.069 552.625 822.5 543.262 822.5 533C822.5 522.738 829.069 513.375 839.841 506.552C850.607 499.734 865.511 495.5 882 495.5C898.489 495.5 913.393 499.734 924.159 506.552C934.931 513.375 941.5 522.738 941.5 533Z" fill="#DCFCE7" stroke="black"/>
<path d="M869.135 526.4V539H867.299L861.017 529.244V539H859.217V526.4H861.053L867.335 536.12V526.4H869.135ZM877.343 539L877.199 537.686C876.923 538.142 876.563 538.496 876.119 538.748C875.687 538.988 875.123 539.108 874.427 539.108C873.779 539.108 873.227 539.006 872.771 538.802C872.315 538.586 871.961 538.292 871.709 537.92C871.469 537.536 871.349 537.092 871.349 536.588C871.349 535.832 871.631 535.208 872.195 534.716C872.759 534.212 873.575 533.9 874.643 533.78L877.199 533.492V532.79C877.199 532.406 877.043 532.082 876.731 531.818C876.419 531.542 875.969 531.404 875.381 531.404C874.829 531.404 874.361 531.536 873.977 531.8C873.593 532.052 873.335 532.43 873.203 532.934L871.691 532.394C871.919 531.602 872.363 530.984 873.023 530.54C873.695 530.096 874.505 529.874 875.453 529.874C876.581 529.874 877.439 530.156 878.027 530.72C878.615 531.284 878.909 532.028 878.909 532.952V539H877.343ZM877.199 534.878L874.733 535.184C874.205 535.256 873.809 535.406 873.545 535.634C873.281 535.85 873.149 536.138 873.149 536.498C873.149 536.834 873.275 537.116 873.527 537.344C873.791 537.56 874.157 537.668 874.625 537.668C875.201 537.668 875.681 537.56 876.065 537.344C876.449 537.128 876.731 536.828 876.911 536.444C877.103 536.048 877.199 535.592 877.199 535.076V534.878ZM881.345 530H882.893L883.001 531.044C883.289 530.684 883.649 530.402 884.081 530.198C884.513 529.982 884.999 529.874 885.539 529.874C886.151 529.874 886.703 530.012 887.195 530.288C887.699 530.552 888.095 530.948 888.383 531.476C888.683 530.948 889.109 530.552 889.661 530.288C890.213 530.012 890.819 529.874 891.479 529.874C892.163 529.874 892.763 530.024 893.279 530.324C893.807 530.612 894.215 531.044 894.503 531.62C894.791 532.196 894.935 532.916 894.935 533.78V539H893.225V533.996C893.225 533.156 893.045 532.52 892.685 532.088C892.325 531.644 891.809 531.422 891.137 531.422C890.453 531.422 889.913 531.65 889.517 532.106C889.121 532.562 888.923 533.228 888.923 534.104V539H887.213V533.996C887.213 533.156 887.045 532.52 886.709 532.088C886.373 531.644 885.869 531.422 885.197 531.422C884.513 531.422 883.979 531.65 883.595 532.106C883.223 532.562 883.037 533.228 883.037 534.104V539H881.345V530ZM901.265 539.126C900.401 539.126 899.633 538.928 898.961 538.532C898.301 538.124 897.779 537.566 897.395 536.858C897.023 536.15 896.837 535.34 896.837 534.428C896.837 533.552 897.023 532.772 897.395 532.088C897.767 531.404 898.277 530.864 898.925 530.468C899.585 530.072 900.329 529.874 901.157 529.874C901.997 529.874 902.741 530.06 903.389 530.432C904.037 530.792 904.541 531.302 904.901 531.962C905.261 532.61 905.435 533.36 905.423 534.212C905.423 534.356 905.417 534.506 905.405 534.662C905.393 534.806 905.375 534.968 905.351 535.148H898.691C898.727 535.628 898.859 536.054 899.087 536.426C899.327 536.786 899.627 537.068 899.987 537.272C900.359 537.476 900.779 537.578 901.247 537.578C901.847 537.578 902.369 537.464 902.813 537.236C903.257 536.996 903.569 536.678 903.749 536.282L905.225 536.804C904.865 537.536 904.337 538.106 903.641 538.514C902.957 538.922 902.165 539.126 901.265 539.126ZM903.569 533.69C903.569 533.258 903.461 532.868 903.245 532.52C903.029 532.172 902.735 531.902 902.363 531.71C902.003 531.506 901.595 531.404 901.139 531.404C900.731 531.404 900.353 531.506 900.005 531.71C899.669 531.902 899.381 532.172 899.141 532.52C898.913 532.856 898.769 533.246 898.708 533.69H903.569Z" fill="black"/>
<path d="M752.5 533C752.5 543.262 745.931 552.625 735.159 559.448C724.393 566.266 709.489 570.5 693 570.5C676.511 570.5 661.607 566.266 650.841 559.448C640.069 552.625 633.5 543.262 633.5 533C633.5 522.738 640.069 513.375 650.841 506.552C661.607 499.734 676.511 495.5 693 495.5C709.489 495.5 724.393 499.734 735.159 506.552C745.931 513.375 752.5 522.738 752.5 533Z" fill="#DCFCE7" stroke="black"/>
<path d="M668.42 515.4C669.788 515.4 670.964 515.658 671.948 516.174C672.944 516.69 673.712 517.422 674.252 518.37C674.804 519.318 675.08 520.446 675.08 521.754C675.08 523.05 674.804 524.166 674.252 525.102C673.712 526.026 672.944 526.74 671.948 527.244C670.964 527.748 669.788 528 668.42 528H664.1V515.4H668.42ZM668.42 526.488C670.004 526.488 671.204 526.074 672.02 525.246C672.848 524.406 673.262 523.242 673.262 521.754C673.262 520.242 672.848 519.06 672.02 518.208C671.204 517.344 670.004 516.912 668.42 516.912H665.9V526.488H668.42ZM682.577 528L682.433 526.686C682.157 527.142 681.797 527.496 681.353 527.748C680.921 527.988 680.357 528.108 679.661 528.108C679.013 528.108 678.461 528.006 678.005 527.802C677.549 527.586 677.195 527.292 676.943 526.92C676.703 526.536 676.583 526.092 676.583 525.588C676.583 524.832 676.865 524.208 677.429 523.716C677.993 523.212 678.809 522.9 679.877 522.78L682.433 522.492V521.79C682.433 521.406 682.277 521.082 681.965 520.818C681.653 520.542 681.203 520.404 680.615 520.404C680.063 520.404 679.595 520.536 679.211 520.8C678.827 521.052 678.569 521.43 678.437 521.934L676.925 521.394C677.153 520.602 677.597 519.984 678.257 519.54C678.929 519.096 679.739 518.874 680.687 518.874C681.815 518.874 682.673 519.156 683.261 519.72C683.849 520.284 684.143 521.028 684.143 521.952V528H682.577ZM682.433 523.878L679.967 524.184C679.439 524.256 679.043 524.406 678.779 524.634C678.515 524.85 678.383 525.138 678.383 525.498C678.383 525.834 678.509 526.116 678.761 526.344C679.025 526.56 679.391 526.668 679.859 526.668C680.435 526.668 680.915 526.56 681.299 526.344C681.683 526.128 681.965 525.828 682.145 525.444C682.337 525.048 682.433 524.592 682.433 524.076V523.878ZM687.155 519V516.48H688.865V519H691.115V520.512H688.865V524.94C688.865 525.492 688.973 525.882 689.189 526.11C689.417 526.338 689.699 526.47 690.035 526.506C690.383 526.53 690.743 526.518 691.115 526.47V527.928C690.623 528.036 690.137 528.066 689.657 528.018C689.189 527.982 688.763 527.85 688.379 527.622C688.007 527.394 687.707 527.064 687.479 526.632C687.263 526.188 687.155 525.624 687.155 524.94V520.512H685.859V519H687.155ZM696.919 528.126C696.055 528.126 695.287 527.928 694.615 527.532C693.955 527.124 693.433 526.566 693.049 525.858C692.677 525.15 692.491 524.34 692.491 523.428C692.491 522.552 692.677 521.772 693.049 521.088C693.421 520.404 693.931 519.864 694.579 519.468C695.239 519.072 695.983 518.874 696.811 518.874C697.651 518.874 698.395 519.06 699.043 519.432C699.691 519.792 700.195 520.302 700.555 520.962C700.915 521.61 701.089 522.36 701.077 523.212C701.077 523.356 701.071 523.506 701.059 523.662C701.047 523.806 701.029 523.968 701.005 524.148H694.345C694.381 524.628 694.513 525.054 694.741 525.426C694.981 525.786 695.281 526.068 695.641 526.272C696.013 526.476 696.433 526.578 696.901 526.578C697.501 526.578 698.023 526.464 698.467 526.236C698.911 525.996 699.223 525.678 699.403 525.282L700.879 525.804C700.519 526.536 699.991 527.106 699.295 527.514C698.611 527.922 697.819 528.126 696.919 528.126ZM699.223 522.69C699.223 522.258 699.115 521.868 698.899 521.52C698.683 521.172 698.389 520.902 698.017 520.71C697.657 520.506 697.249 520.404 696.793 520.404C696.385 520.404 696.007 520.506 695.659 520.71C695.323 520.902 695.035 521.172 694.795 521.52C694.567 521.856 694.423 522.246 694.363 522.69H699.223ZM712.142 528.126C711.29 528.126 710.522 527.94 709.838 527.568C709.166 527.184 708.638 526.65 708.254 525.966C707.87 525.27 707.678 524.454 707.678 523.518C707.678 522.57 707.876 521.748 708.272 521.052C708.668 520.356 709.208 519.822 709.892 519.45C710.576 519.066 711.344 518.874 712.196 518.874C713.048 518.874 713.816 519.066 714.5 519.45C715.196 519.822 715.742 520.356 716.138 521.052C716.534 521.736 716.732 522.546 716.732 523.482C716.732 524.43 716.528 525.252 716.12 525.948C715.724 526.644 715.178 527.184 714.482 527.568C713.786 527.94 713.006 528.126 712.142 528.126ZM712.124 526.578C712.604 526.578 713.054 526.47 713.474 526.254C713.894 526.026 714.236 525.684 714.5 525.228C714.776 524.772 714.914 524.19 714.914 523.482C714.914 522.786 714.782 522.216 714.518 521.772C714.266 521.316 713.93 520.98 713.51 520.764C713.09 520.536 712.64 520.422 712.16 520.422C711.692 520.422 711.254 520.536 710.846 520.764C710.45 520.98 710.126 521.316 709.874 521.772C709.622 522.228 709.496 522.81 709.496 523.518C709.496 524.214 709.616 524.79 709.856 525.246C710.108 525.69 710.432 526.026 710.828 526.254C711.224 526.47 711.656 526.578 712.124 526.578ZM719.232 517.992C719.232 517.308 719.346 516.732 719.574 516.264C719.814 515.796 720.18 515.46 720.672 515.256C721.164 515.04 721.812 514.968 722.616 515.04V516.534C721.992 516.474 721.554 516.57 721.302 516.822C721.062 517.074 720.942 517.464 720.942 517.992V519H722.724V520.512H720.942V528H719.232V520.512H718.08V519H719.232V517.992ZM681.968 540.892C681.968 540.28 681.764 539.8 681.356 539.452C680.96 539.092 680.384 538.912 679.628 538.912H676.244V542.854H679.646C680.378 542.854 680.948 542.68 681.356 542.332C681.764 541.984 681.968 541.504 681.968 540.892ZM674.444 550V537.4H679.79C680.678 537.4 681.416 537.55 682.004 537.85C682.592 538.15 683.03 538.546 683.318 539.038C683.618 539.53 683.768 540.076 683.768 540.676C683.768 541.24 683.66 541.714 683.444 542.098C683.24 542.482 682.964 542.788 682.616 543.016C682.28 543.244 681.896 543.406 681.464 543.502V543.628C681.98 543.7 682.43 543.856 682.814 544.096C683.21 544.324 683.516 544.648 683.732 545.068C683.96 545.488 684.074 546.01 684.074 546.634C684.074 547.258 683.912 547.828 683.588 548.344C683.264 548.86 682.796 549.268 682.184 549.568C681.584 549.856 680.852 550 679.988 550H674.444ZM676.244 548.488H679.826C680.594 548.488 681.194 548.314 681.626 547.966C682.07 547.606 682.292 547.096 682.292 546.436C682.292 545.764 682.058 545.254 681.59 544.906C681.134 544.546 680.528 544.366 679.772 544.366H676.244V548.488ZM686.577 541H688.287V550H686.577V541ZM687.441 539.416C687.117 539.416 686.847 539.308 686.631 539.092C686.415 538.876 686.307 538.612 686.307 538.3C686.307 537.976 686.415 537.706 686.631 537.49C686.847 537.262 687.117 537.148 687.441 537.148C687.753 537.148 688.017 537.262 688.233 537.49C688.461 537.706 688.575 537.976 688.575 538.3C688.575 538.612 688.461 538.876 688.233 539.092C688.017 539.308 687.753 539.416 687.441 539.416ZM691.123 541H692.671L692.779 542.206C693.031 541.894 693.319 541.636 693.643 541.432C693.979 541.216 694.339 541.066 694.723 540.982C695.119 540.898 695.527 540.904 695.947 541V542.602C695.551 542.506 695.167 542.494 694.795 542.566C694.423 542.638 694.087 542.794 693.787 543.034C693.499 543.262 693.265 543.568 693.085 543.952C692.905 544.336 692.815 544.798 692.815 545.338V550H691.123V541ZM698.238 541V538.48H699.948V541H702.198V542.512H699.948V546.94C699.948 547.492 700.056 547.882 700.272 548.11C700.5 548.338 700.782 548.47 701.118 548.506C701.466 548.53 701.826 548.518 702.198 548.47V549.928C701.706 550.036 701.22 550.066 700.74 550.018C700.272 549.982 699.846 549.85 699.462 549.622C699.09 549.394 698.79 549.064 698.562 548.632C698.346 548.188 698.238 547.624 698.238 546.94V542.512H696.942V541H698.238ZM704.096 537.04H705.788V541.99C706.076 541.642 706.448 541.372 706.904 541.18C707.36 540.976 707.864 540.874 708.416 540.874C709.088 540.874 709.676 541.024 710.18 541.324C710.696 541.612 711.098 542.05 711.386 542.638C711.674 543.214 711.818 543.934 711.818 544.798V550H710.036V545.014C710.036 544.174 709.862 543.532 709.514 543.088C709.166 542.644 708.656 542.422 707.984 542.422C707.288 542.422 706.748 542.65 706.364 543.106C705.98 543.562 705.788 544.228 705.788 545.104V550H704.096V537.04Z" fill="black"/>
<line x1="503" y1="495" x2="503" y2="423" stroke="black" stroke-width="2"/>
<line x1="881" y1="495" x2="881" y2="423" stroke="black" stroke-width="2"/>
<line x1="881" y1="200" x2="881" y2="129" stroke="black" stroke-width="2"/>
</svg>
